<?xml version="1.0" encoding="utf-8"?>
<!-- Generator: Adobe Illustrator 24.2.0, SVG Export Plug-In . SVG Version: 6.00 Build 0)  -->
<svg version="1.1" id="a03e49aa-1ede-49ab-95c4-f5a45b19bb50"
	 xmlns="http://www.w3.org/2000/svg" xmlns:xlink="http://www.w3.org/1999/xlink" x="0px" y="0px" viewBox="0 0 847.7 656"
	 style="enable-background:new 0 0 847.7 656;" xml:space="preserve">
<style type="text/css">
	.st0{fill:#9CD499;}
	.st1{fill:#FFFFFF;}
	.st2{fill:#3F3D56;}
	.st3{fill:#F2F2F2;}
	.st4{fill:#6C63FF;}
	.st5{fill:#2F2E41;}
	.st6{fill:#FFB8B8;}
	.st7{fill:#CCCCCC;}
</style>
<path class="st0" d="M37.6,637.3c26.4,19,60.7,20,93.8,17.7c4.6-0.3,9.2-0.7,13.8-1.1c0,0,0.1,0,0.1,0c0.2,0,0.4,0,0.6-0.1
	c0.9-0.1,1.9-0.2,2.8-0.3l-0.2,0.4l-0.7,1.3c0.2-0.4,0.5-0.9,0.7-1.3c0.1-0.1,0.2-0.3,0.2-0.4c8.6-14.9,17.1-30.4,19.2-47.4
	c2.2-17.7-4.1-37.7-19.6-46.4c-2-1.1-4.2-2-6.4-2.7c-0.9-0.3-1.9-0.5-2.8-0.7c-18.2-4-36.1,7.4-40.2,25.6c-1.3,6-1,12.3,1,18.2
	c-13.2-13.5-10.7-35.5-6.2-53.8c4.6-18.3,10.1-38.8,0.8-55.2c-5.2-9.2-14.2-14.9-24.4-17.2c-0.3-0.1-0.6-0.1-0.9-0.2
	c-12.1-2.5-24.7-0.2-35.3,6.2c-19.5,12.3-29.5,35.5-32.7,58.3C-4,574.7,7.6,615.6,37.6,637.3z"/>
<path class="st1" d="M46.1,578.5c0.8,8.1,2.7,16,5.8,23.5c2.8,6.7,6.6,12.9,11.3,18.4c9.5,11.4,22.1,20,35.7,25.7
	c10.4,4.3,21.4,7.2,32.5,8.7c4.6-0.3,9.2-0.7,13.8-1.1c0,0,0.1,0,0.1,0c0.2,0,0.4,0,0.6-0.1c0.9-0.1,1.9-0.2,2.8-0.3l-0.2,0.4
	l-0.7,1.3c0.2-0.4,0.5-0.9,0.7-1.3c0.1-0.1,0.2-0.3,0.2-0.4c-17-16.9-24.7-41-20.7-64.7c2.1-11.6,6.8-22.5,13.9-31.9
	c-0.9-0.3-1.9-0.5-2.8-0.7c-2.7,3.7-5,7.6-7.1,11.7c-7.2,14.6-9.5,31.1-6.5,47.1c2.7,14.5,9.5,27.9,19.6,38.6
	c-0.9-0.1-1.8-0.1-2.6-0.2c-16.5-1.4-33-5-48-12.2c-12.8-6.1-23.9-15.2-32.4-26.6C53,602.2,49,587.1,48.3,571.8
	c-0.7-16.4,1.4-33.1,5.1-49c3.8-16.3,9.6-32.1,17.3-47.1c0.4-0.7,0.1-1.6-0.6-2c-0.3-0.2-0.6-0.3-0.9-0.2c-0.3,0.1-0.6,0.3-0.7,0.6
	c-0.9,1.8-1.9,3.7-2.8,5.6c-7.4,15.5-12.9,31.9-16.3,48.8C46.2,544.9,44.4,562,46.1,578.5z"/>
<path class="st2" d="M830.7,564h-437c-9.4,0-17-7.6-17-17V17c0-9.4,7.6-17,17-17h437c9.4,0,17,7.6,17,17v530
	C847.7,556.4,840.1,564,830.7,564z M393.7,2c-8.3,0-15,6.7-15,15v530c0,8.3,6.7,15,15,15h437c8.3,0,15-6.7,15-15V17
	c0-8.3-6.7-15-15-15H393.7z"/>
<rect x="377.7" y="41.6" class="st2" width="469" height="2"/>
<circle class="st2" cx="400.7" cy="22" r="8"/>
<circle class="st2" cx="425.7" cy="22" r="8"/>
<circle class="st2" cx="450.7" cy="22" r="8"/>
<path class="st2" d="M763,121H451c-7.2,0-13-5.8-13-13s5.8-13,13-13h312c7.2,0,13,5.8,13,13S770.1,121,763,121z M451,97
	c-6.1,0-11,4.9-11,11s4.9,11,11,11h312c6.1,0,11-4.9,11-11s-4.9-11-11-11H451z"/>
<path class="st2" d="M567.7,304h-123c-9.4,0-17-7.6-17-17V186c0-9.4,7.6-17,17-17h123c9.4,0,17,7.6,17,17v101
	C584.7,296.4,577.1,304,567.7,304z M444.7,171c-8.3,0-15,6.7-15,15v101c0,8.3,6.7,15,15,15h123c8.3,0,15-6.7,15-15V186
	c0-8.3-6.7-15-15-15H444.7z"/>
<path class="st3" d="M656.7,174h123c8.8,0,16,7.2,16,16v101c0,8.8-7.2,16-16,16h-123c-8.8,0-16-7.2-16-16V190
	C640.7,181.2,647.9,174,656.7,174z"/>
<path class="st2" d="M567.7,492h-123c-9.4,0-17-7.6-17-17V374c0-9.4,7.6-17,17-17h123c9.4,0,17,7.6,17,17v101
	C584.7,484.4,577.1,492,567.7,492z M444.7,359c-8.3,0-15,6.7-15,15v101c0,8.3,6.7,15,15,15h123c8.3,0,15-6.7,15-15V374
	c0-8.3-6.7-15-15-15H444.7z"/>
<path class="st3" d="M656.7,362h123c8.8,0,16,7.2,16,16v101c0,8.8-7.2,16-16,16h-123c-8.8,0-16-7.2-16-16V378
	C640.7,369.2,647.9,362,656.7,362z"/>
<path class="st4" d="M475.6,279.6C475.6,279.6,475.5,279.6,475.6,279.6l-14.1-0.5c-0.9,0-1.6-0.7-1.7-1.6c-1-8.6-4.9-52.4,11.7-70.6
	c4.8-5.3,11.7-8.2,18.8-7.9c0.3,0,0.6-0.1,0.7-0.4l3.4-5.3c0.4-0.6,1.1-0.9,1.8-0.8c2.7,0.3,16.6,1.9,22.4,0.2
	c0.7-0.2,1.5,0,1.9,0.6l4.4,5.4c0.2,0.2,0.4,0.3,0.6,0.3c2.3,0,10.2,0.4,17.1,8.2c7.5,8.4,15.3,27.4,9.5,70
	c-0.1,0.9-0.9,1.6-1.8,1.6h-11c-0.9,0-1.7-0.7-1.8-1.6l-3.6-24.8c-0.1-0.4-0.5-0.8-0.9-0.7c-0.4,0.1-0.7,0.4-0.7,0.8l-0.2,11.7
	c0,0.7-0.4,1.3-1.1,1.6c-3.9,1.7-24.7,9.8-47.6-0.3c-0.6-0.3-1.1-0.9-1.1-1.6l-0.5-10.6c0-0.5-0.4-0.8-0.9-0.8
	c-0.4,0-0.7,0.3-0.8,0.7l-2.8,24.8C477.3,278.9,476.5,279.6,475.6,279.6z"/>
<path class="st4" d="M533.5,462.5L533.5,462.5l-54.8-0.3c-0.8,0-1.5-0.6-1.6-1.4l-5.5-46.9c-0.1-0.6-0.6-1.1-1.2-1.1
	c-4.4-0.1-14.7-1.1-16.9-7.3c-1.9-5.5,3.3-13.5,15.5-23.9c0.7-0.6,1.7-0.5,2.3,0.2c0.2,0.2,0.3,0.4,0.3,0.6l6.3,21.9
	c0.2,0.5,0.7,0.9,1.2,0.9l52,0.3c0.6,0,1.1-0.4,1.2-0.9l7.1-22.5c0.3-0.9,1.2-1.3,2-1.1c0.2,0.1,0.4,0.1,0.5,0.3
	c4.8,3.7,20.3,16.3,17.8,24.4c-1.3,4.2-7.4,6.6-17.9,7c-0.6,0-1.1,0.5-1.2,1.1l-5.5,47.2C535,461.9,534.3,462.5,533.5,462.5z"/>
<path class="st4" d="M773.7,265.2c-17.2,3.3-33.5,10.5-47.5,21c-0.7-1.9-2-3.5-3.8-4.5c-1.2-0.7-2.5-1.3-3.8-1.6
	c-1.2-0.3-2.4,0.4-3.5,1.5c-1.3,1.4-2.3,2.9-3.1,4.6c-18.8-12.9-47.4-21.2-47.4-21.2v-2.6c0-0.6,0.1-1.2,0.2-1.8
	c0.1-0.7,0.2-1.3,0.4-2.1c2.4-12.3,12-40.5,12-40.5h10.8l21,4.4l23.6-1.4l23.8-5l3.1-0.6c5.1,4,11,32.3,13.3,44.3
	c0.3,1.5,0.5,2.8,0.7,3.7C773.6,264.5,773.7,265.2,773.7,265.2z"/>
<path class="st4" d="M709.1,389.2L709.1,389.2c0,0-5,1.3-12.8,22.4S685.7,460,685.7,460s-4.4,7.4,14.3,7.9c0,0-1.5,4.9,9.1,4.2
	s9-0.7,9-0.7s6.8-4.3,9.8-3.5s4.9,1,8.2,3.8s13.7,1.6,13.8-0.5c0.1-1,0.1-2.1,0-3.2c0,0,16,1,13-10.6s-5.5-30.6-5.5-30.6
	s-8.2-37.1-17.5-37.6S709.1,389.2,709.1,389.2z"/>
<circle class="st5" cx="192.6" cy="323.6" r="30"/>
<circle class="st6" cx="195.2" cy="329.1" r="24.6"/>
<path class="st6" d="M288.7,403.8c-0.4,0.4-0.7,0.8-1.1,1.3l-49.6-1.8l-5.7-10.6l-17.2,6.5l8.2,19.8c1.4,3.3,4.7,5.3,8.3,4.9
	l56.1-6.2c3.5,4.6,10.1,5.4,14.7,1.9s5.4-10.1,1.9-14.7c-3.5-4.6-10.1-5.4-14.7-1.9C289.3,403.2,289,403.5,288.7,403.8L288.7,403.8z
	"/>
<path class="st7" d="M208.6,408.7c-1.3-0.6-2.2-1.7-2.6-3l-6.9-23.2c-3.1-6.7-0.2-14.7,6.5-17.8c6.7-3.1,14.6-0.3,17.8,6.4
	l13.4,20.2c1.5,2.2,0.9,5.2-1.4,6.7c-0.2,0.1-0.4,0.2-0.6,0.3l-22,10.3C211.4,409.3,209.9,409.3,208.6,408.7z"/>
<polygon class="st6" points="257.4,643.9 268.2,638.1 250.7,593.7 234.8,602.4 "/>
<path class="st5" d="M252.8,641.9l21.2-11.5l0,0c7.5-4.1,16.8-1.3,20.9,6.2c0,0,0,0,0,0l0.2,0.4l-34.7,18.9L252.8,641.9z"/>
<polygon class="st6" points="139,644 151.2,644 157.1,596.7 139,596.7 "/>
<path class="st5" d="M135.8,640l24.1,0h0c8.5,0,15.4,6.9,15.4,15.4c0,0,0,0,0,0v0.5l-39.5,0L135.8,640z"/>
<path class="st5" d="M215.1,434.1l4,48L263.8,616c0.7,2.1-0.4,4.4-2.5,5.1c-0.1,0-0.2,0.1-0.3,0.1l-13.7,3.3
	c-1.8,0.4-3.7-0.4-4.5-2.1l-57-113.2c-0.5-1-1.7-1.4-2.7-0.9c-0.5,0.3-0.9,0.8-1.1,1.4L156.8,624c-0.4,1.8-2,3.1-3.9,3.1h-12.7
	c-2.2,0-4-1.8-4-4c0,0,0,0,0-0.1c1.2-79.3-2.7-169.7,27.9-183.9l5-13L215.1,434.1z"/>
<path class="st7" d="M167.7,429.5l-5.2-31.2c-1.7-10.4,1.9-20.9,9.8-28c7.6-7,18.3-9.6,28.3-6.9c0.3,0.1,0.6,0.2,0.9,0.2
	c12.4,3.6,21.3,14.5,22.2,27.3c1,13.5,0.1,33.2-9.7,49.9l-0.2,0.3L167.7,429.5z"/>
<path class="st5" d="M219.6,316c-5.6,3.9-12.3,5.9-19.1,5.9c2.4,1.7,5.2,2.8,8.1,3.3c-9.1,1.9-18.4,2-27.5,0.2c-2-0.3-4-1-5.8-2
	c-1.8-1-3.1-2.7-3.6-4.8c-0.6-3.4,2.1-6.6,4.9-8.7c8.7-6.4,19.8-8.7,30.2-6c3.4,0.9,6.8,2.3,9,5.1s2.8,6.9,0.8,9.7L219.6,316z"/>
<path class="st5" d="M192.2,293.4c2.8-11.5-7.4-24.3-19.2-24c-12,0.2-20.9,11.1-26.9,21.5S134,313,122.8,317.5
	c-12.3,4.9-26.3-1.1-31.2-13.4c-1.2-3-1.8-6.3-1.7-9.5c-1.5,12.6,0.6,26.2,8.7,36s23.2,14.1,34.1,7.6c6.2-3.7,10.2-10.2,13.4-16.7
	s6.2-13.3,11.1-18.6s12.6-8.8,19.5-6.6c2.7,0.9,5.2,2.6,8,3.1s6.4-0.8,6.8-3.7L192.2,293.4z"/>
<path class="st6" d="M133,501.9c-3.9-4.5-3.3-11.3,1.2-15.1c0.5-0.4,1-0.8,1.5-1.1l21.3-95.5l21.6,8.9L151,490.1
	c2.7,5.3,0.5,11.8-4.8,14.5C141.7,506.8,136.3,505.7,133,501.9L133,501.9z"/>
<path class="st7" d="M148.7,403.9c-0.7-1.2-0.8-2.7-0.3-4l8.2-22.7c1.5-7.2,8.5-11.9,15.8-10.5c7.2,1.5,11.9,8.5,10.5,15.7
	l-1.2,24.2c-0.1,2.7-2.4,4.7-5.1,4.6c-0.2,0-0.5,0-0.7-0.1l-23.9-4.8C150.5,405.9,149.3,405.1,148.7,403.9z"/>
<path id="b06866c4-d0b9-420f-a9d2-389dd10be0a8" class="st2" d="M323.2,393.1l-0.4,0l1.3-9.7c0.4-3.1-1.7-6-4.9-6.4l-20.6-2.8
	c-3.1-0.4-6,1.7-6.4,4.9l-7.3,53.3c-0.4,3.1,1.7,6,4.9,6.4l20.6,2.8c3.1,0.4,6-1.7,6.4-4.9l5-36.7l0.4,0L323.2,393.1z"/>
<path id="fb337c3c-e64d-4daa-8f83-1de4a3033e68" class="st1" d="M318.7,379.8l-2.6-0.4c0.3,1-0.4,2.1-1.4,2.3
	c-0.2,0.1-0.5,0.1-0.7,0l-11.3-1.5c-1.1-0.1-1.8-1.1-1.6-2.2c0-0.2,0.1-0.5,0.2-0.7l-2.4-0.3c-2.2-0.3-4.3,1.2-4.6,3.5l0,0l-7,50.8
	c-0.3,2.2,1.2,4.3,3.5,4.6c0,0,0,0,0,0l19.7,2.7c2.2,0.3,4.3-1.2,4.6-3.5l0,0l0,0l7-50.8C322.5,382.2,320.9,380.1,318.7,379.8
	L318.7,379.8z"/>
<circle class="st4" cx="304.7" cy="411" r="11"/>
<path class="st1" d="M303.6,415.2c-0.2,0-0.5-0.1-0.7-0.2l0,0l-2.6-2c-0.5-0.4-0.6-1.1-0.2-1.6c0.4-0.5,1.1-0.6,1.6-0.2c0,0,0,0,0,0
	l1.7,1.3l4-5.2c0.4-0.5,1.1-0.6,1.6-0.2c0,0,0,0,0,0l0,0l0,0c0.5,0.4,0.6,1.1,0.2,1.6l-4.7,6.1C304.3,415,304,415.2,303.6,415.2z"/>
<path class="st2" d="M406.1,656h-381c-0.6,0-1-0.4-1-1s0.4-1,1-1h381c0.6,0,1,0.4,1,1S406.6,656,406.1,656z"/>
</svg>
