<?xml version="1.0" encoding="utf-8"?>
<!-- Generator: Adobe Illustrator 24.2.0, SVG Export Plug-In . SVG Version: 6.00 Build 0)  -->
<svg version="1.1" id="cbb92aef-a4c8-4910-9d60-405154a20c92"
	 xmlns="http://www.w3.org/2000/svg" xmlns:xlink="http://www.w3.org/1999/xlink" x="0px" y="0px" viewBox="0 0 847.7 656"
	 enable-background="new 0 0 847.7 656" xml:space="preserve">
<g>
	<path opacity="0.1" fill="#6C63FF" enable-background="new    " d="M817.5,442.3c-0.7,0.5-1.4,1.1-2.1,1.6
		c-2.7,1.9-5.5,3.6-8.4,5.1c-15.3,8-34.1,12-52.4,14.6c-41.1,6-83,7.2-124.8,8.3c-112.9,3.1-226,6.2-338.6-0.9
		c-44.5-2.8-89.9-7.5-130.2-22c-5.8-2.1-11.4-4.3-17-6.8c-11.2-5-22-11.2-31-18.5c-8.4-6.9-15.3-14.8-19.3-23.8
		c-8.5-18.7-4-39.7,5.7-58.1c4-7.4,8.6-14.5,13.6-21.3c7.5-10.3,15.8-20.4,23.3-30.7c26.9-36.7,44.4-83.1,19.6-120.7
		c-7.1-10.8-17.4-20.3-23.2-31.6c-7.4-14.4-6.8-30.5-4.5-46c0.3-2,0.6-3.9,1-5.9c4-23.1,11.6-48,35-62.4c24.3-15,58.7-14.2,88.8-8.9
		c46.8,8.4,90,25.8,133.7,41.5S476,85.9,523.9,87.5c42.4,1.4,91.8-8.8,119.9-35.4c27.3-25.8,78.6-27.7,115.6-12.2
		c25.4,10.7,44.3,29.9,52.3,51.6c1.6,4.3,2.8,8.8,3.5,13.4c0.6,4.2,0.8,8.4,0.6,12.7c-0.1,2.1-0.3,4.2-0.6,6.2
		c-6.2,42.7-50.7,76.4-77.7,114.6c-13.2,18.6-22.6,41-13.5,61.1c13.9,30.6,62.1,41.5,91.2,64.3c5.5,4.1,10.3,9.1,14.3,14.7
		C843.7,398.8,838.5,426.1,817.5,442.3z"/>
	<g id="d00831fc-a64a-413c-b5dd-d7bd6eafa01d_1_">
		<path fill="none" stroke="#535461" stroke-width="2" stroke-miterlimit="10" d="M201.3,251.1c0,0-34.1-60.4-85.5-77.8
			c-21.6-7.3-40.4-21.1-53.3-39.8c-6.1-8.9-11.4-18.4-15.7-28.3"/>
		<path fill="#6C63FF" d="M14.5,94c5.9,5.7,33.1,11.6,33.1,11.6S41,78.5,35.1,72.8c-5.9-5.6-15.3-5.4-20.9,0.6
			C8.7,79.2,8.8,88.4,14.5,94L14.5,94z"/>
		<path fill="#6C63FF" d="M30,143c8,1.6,34.1-8.3,34.1-8.3S43.7,115.6,35.7,114c-8-1.4-15.7,4-17.1,12C17.2,133.8,22.2,141.3,30,143
			L30,143z"/>
		<path fill="#6C63FF" d="M86.1,196c7.7-2.7,25.2-24.4,25.2-24.4s-27.2-6.2-34.9-3.6c-7.8,2.4-12.1,10.7-9.7,18.5
			s10.7,12.1,18.5,9.7C85.5,196.3,85.8,196.2,86.1,196L86.1,196z"/>
		<path fill="#6C63FF" d="M137.6,226.6c8.1-1.3,29-19.8,29-19.8s-25.7-10.7-33.8-9.4c-8.1,1.3-13.5,8.9-12.2,17
			C122,222.5,129.6,227.9,137.6,226.6L137.6,226.6z"/>
		<path fill="#6C63FF" d="M86.8,113.6c0,8.2-14.8,31.8-14.8,31.8s-14.8-23.7-14.8-31.8c-0.2-8.2,6.3-14.9,14.4-15.1
			s14.9,6.3,15.1,14.4C86.8,113.1,86.8,113.4,86.8,113.6L86.8,113.6z"/>
		<path fill="#6C63FF" d="M146.6,150.1C144.1,157.9,123,176,123,176s-7-27-4.6-34.8c2.8-7.7,11.2-11.6,18.9-8.9
			C144.5,134.9,148.5,142.6,146.6,150.1L146.6,150.1z"/>
		<path fill="#6C63FF" d="M199.8,193.5c-1.1,8.1-18.9,29.6-18.9,29.6s-11.5-25.4-10.4-33.5c1.2-8.1,8.7-13.6,16.8-12.4
			C195.3,178.3,200.8,185.6,199.8,193.5L199.8,193.5z"/>
		<path opacity="0.25" enable-background="new    " d="M14.5,94c5.9,5.7,33.1,11.6,33.1,11.6S41,78.5,35.1,72.8
			c-5.9-5.6-15.3-5.4-20.9,0.6C8.7,79.2,8.8,88.4,14.5,94L14.5,94z"/>
		<path opacity="0.25" enable-background="new    " d="M30,143c8,1.6,34.1-8.3,34.1-8.3S43.7,115.6,35.7,114c-8-1.4-15.7,4-17.1,12
			C17.2,133.8,22.2,141.3,30,143L30,143z"/>
		<path opacity="0.25" enable-background="new    " d="M86.1,196c7.7-2.7,25.2-24.4,25.2-24.4s-27.2-6.2-34.9-3.6
			c-7.8,2.4-12.1,10.7-9.7,18.5s10.7,12.1,18.5,9.7C85.5,196.3,85.8,196.2,86.1,196L86.1,196z"/>
		<path opacity="0.25" enable-background="new    " d="M137.6,226.6c8.1-1.3,29-19.8,29-19.8s-25.7-10.7-33.8-9.4
			c-8.1,1.3-13.5,8.9-12.2,17C122,222.5,129.6,227.9,137.6,226.6L137.6,226.6z"/>
		<path opacity="0.25" enable-background="new    " d="M86.8,113.6c0,8.2-14.8,31.8-14.8,31.8s-14.8-23.7-14.8-31.8
			c-0.2-8.2,6.3-14.9,14.4-15.1s14.9,6.3,15.1,14.4C86.8,113.1,86.8,113.4,86.8,113.6L86.8,113.6z"/>
		<path opacity="0.25" enable-background="new    " d="M146.6,150.1C144.1,157.9,123,176,123,176s-7-27-4.6-34.8
			c2.8-7.7,11.2-11.6,18.9-8.9C144.5,134.9,148.5,142.6,146.6,150.1L146.6,150.1z"/>
		<path opacity="0.25" enable-background="new    " d="M199.8,193.5c-1.1,8.1-18.9,29.6-18.9,29.6s-11.5-25.4-10.4-33.5
			c1.2-8.1,8.7-13.6,16.8-12.4C195.3,178.3,200.8,185.6,199.8,193.5L199.8,193.5z"/>
		<path fill="none" stroke="#535461" stroke-width="2" stroke-miterlimit="10" d="M199.3,249.9c0,0-6.7-69.1-46.6-105.8
			c-16.7-15.4-28.4-35.6-32.5-58c-2-10.6-2.9-21.4-2.9-32.2"/>
		<path fill="#6C63FF" d="M92.3,30.6c3.1,7.6,25.6,24,25.6,24s4.9-27.5,1.8-35c-3.1-7.6-11.7-11.2-19.2-8.2
			C92.8,14.4,89.2,23,92.3,30.6L92.3,30.6z"/>
		<path fill="#6C63FF" d="M86.5,81.7c6.7,4.7,34.5,6.2,34.5,6.2s-10.8-25.7-17.5-30.4c-6.7-4.7-15.9-3.1-20.6,3.6
			S79.8,76.9,86.5,81.7z"/>
		<path fill="#6C63FF" d="M116.4,152.9c8.2,0.7,32.9-12.1,32.9-12.1s-22.3-16.7-30.5-17.4c-8.1-0.9-15.4,5-16.3,13.1
			c-0.9,8.1,5,15.4,13.1,16.3C115.9,152.8,116.1,152.9,116.4,152.9L116.4,152.9z"/>
		<path fill="#6C63FF" d="M151.1,201.7c7.9,2,34.5-6.3,34.5-6.3s-19.2-20.2-27.1-22.3c-7.9-1.9-15.9,3-17.8,10.9
			C138.8,191.7,143.4,199.6,151.1,201.7L151.1,201.7z"/>
		<path fill="#6C63FF" d="M150.4,77.8c-3.3,7.5-26.4,23.1-26.4,23.1s-3.9-27.6-0.6-35.1c3.2-7.5,11.8-11,19.4-7.9
			c7.5,3.2,11,11.8,7.9,19.4C150.5,77.5,150.4,77.6,150.4,77.8z"/>
		<path fill="#6C63FF" d="M190.3,135.3c-5.4,6.1-32.1,14.2-32.1,14.2s4.5-27.5,9.9-33.6c5.4-6.1,14.7-6.7,20.8-1.4
			C195,119.9,195.6,129.2,190.3,135.3z"/>
		<path fill="#6C63FF" d="M221.4,196.6c-4.3,7-29.2,19.4-29.2,19.4s-0.2-27.9,4.1-34.8c4.3-7,13.4-9.1,20.3-4.9
			C223.5,180.6,225.7,189.7,221.4,196.6L221.4,196.6z"/>
	</g>
	<ellipse opacity="0.1" fill="#6C63FF" enable-background="new    " cx="312.6" cy="630.9" rx="82.7" ry="10.8"/>
	<g id="_x35_cfdbbb0-8197-4f02-a5fd-2740d54b5dec_1_">
		<ellipse opacity="0.1" fill="#6C63FF" enable-background="new    " cx="145.6" cy="630.1" rx="25.1" ry="4.3"/>
		<path fill="#6C63FF" d="M151.1,582.2c0,0,4.1,5.3-1.9,13.3c-6,8-10.9,14.8-8.9,19.8c0,0,9-14.9,16.3-15.1
			C163.9,600.1,159.1,591.2,151.1,582.2z"/>
		<path opacity="0.1" enable-background="new    " d="M151.1,582.2c0.4,0.5,0.6,1.1,0.8,1.7c7.1,8.4,10.9,16.2,4.1,16.4
			c-6.4,0.2-14,11.6-15.9,14.5c0.1,0.2,0.1,0.4,0.2,0.7c0,0,9-14.9,16.3-15.1C164,600.1,159.1,591.2,151.1,582.2z"/>
		<path fill="#FFD037" d="M158.6,589c0,1.9-0.2,3.4-0.5,3.4s-0.5-1.5-0.5-3.4s0.3-1,0.5-1S158.6,587.2,158.6,589z"/>
		<path fill="#FFD037" d="M161.2,591.3c-1.6,0.9-3.1,1.4-3.2,1.2c-0.1-0.2,1.1-1.1,2.8-2s1-0.2,1.1,0
			C162,590.7,162.9,590.4,161.2,591.3z"/>
		<path fill="#6C63FF" d="M129.6,582.2c0,0-4.1,5.3,1.9,13.3c6,8,10.9,14.8,8.9,19.8c0,0-9-14.9-16.3-15.1
			C116.7,600.1,121.5,591.2,129.6,582.2z"/>
		<path opacity="0.1" enable-background="new    " d="M129.6,582.2c-0.4,0.5-0.6,1.1-0.8,1.7c-7.1,8.4-10.9,16.2-4.1,16.4
			c6.4,0.2,14,11.6,15.9,14.5c-0.1,0.2-0.1,0.4-0.2,0.7c0,0-9-14.9-16.3-15.1C116.7,600.1,121.5,591.2,129.6,582.2z"/>
		<path fill="#FFD037" d="M122,589c0,1.9,0.2,3.4,0.5,3.4c0.3,0,0.5-1.5,0.5-3.4s-0.3-1-0.5-1C122.2,588,122,587.2,122,589z"/>
		<path fill="#FFD037" d="M119.4,591.3c1.6,0.9,3.1,1.4,3.2,1.2c0.1-0.2-1.1-1.1-2.8-2s-1-0.2-1.1,0
			C118.6,590.7,117.8,590.4,119.4,591.3z"/>
		<path fill="#A8A8A8" d="M123.3,614.8c0,0,11.4-0.4,14.8-2.8c3.4-2.4,17.5-5.4,18.4-1.4c0.9,3.9,17.1,19.5,4.3,19.6
			c-12.9,0.1-29.9-2-33.3-4.1C124,623.9,123.3,614.8,123.3,614.8z"/>
		<path opacity="0.2" enable-background="new    " d="M161,628.7c-12.9,0.1-29.9-2-33.3-4.1c-2.6-1.6-3.6-7.3-4-9.9h-0.4
			c0,0,0.7,9.2,4.1,11.3s20.4,4.2,33.3,4.1c3.7,0,5-1.3,4.9-3.3C165.1,628,163.7,628.7,161,628.7z"/>
		<path fill="#6C63FF" d="M503.6,614.3c0,0-31.3-1.9-27.6,20.1c0,0-0.7,3.9,2.8,5.6c0,0,0.1-1.6,3.2-1.1c1.1,0.2,2.3,0.2,3.4,0.2
			c1.5-0.1,3-0.7,4.2-1.7l0,0c0,0,8.8-3.6,12.2-18c0,0,2.5-3.1,2.4-4l-5.3,2.2c0,0,1.8,3.8,0.4,7c0,0-0.2-6.8-1.2-6.7
			c-0.2,0-2.8,1.3-2.8,1.3s3.1,6.7,0.7,11.5c0,0,0.9-8.2-1.7-11l-3.7,2.2c0,0,3.6,6.9,1.2,12.5c0,0,0.6-8.6-1.9-11.9l-3.4,2.6
			c0,0,3.4,6.8,1.3,11.4c0,0-0.3-10-2.1-10.8c0,0-3,2.6-3.4,3.7c0,0,2.3,4.9,0.9,7.5c0,0-0.9-6.7-1.6-6.7c0,0-3,4.4-3.2,7.4
			c0,0,0.1-4.5,2.5-7.9c-1.7,0.3-3.3,1.1-4.5,2.3c0,0,0.5-3.1,5.2-3.4c0,0,2.4-3.4,3.1-3.6c0,0-4.7-0.4-7.6,0.9c0,0,2.5-3,8.5-1.6
			l3.3-2.7c0,0-6.2-0.9-8.9,0.1c0,0,3.1-2.6,9.8-0.7l3.6-2.2c0,0-5.3-1.1-8.5-0.7c0,0,3.4-1.8,9.6,0.1l2.6-1.2c0,0-3.9-0.7-5-0.9
			s-1.2-0.4-1.2-0.4c2.5-0.4,5-0.1,7.3,0.8C498.1,616.7,503.6,614.7,503.6,614.3z"/>
		<ellipse opacity="0.1" fill="#6C63FF" enable-background="new    " cx="482" cy="641.9" rx="22.2" ry="3.8"/>
		<path fill="#6C63FF" d="M448.6,615.5c0,0-17.7-1.1-15.6,11.3c-0.2,1.3,0.4,2.6,1.6,3.2c0,0,0-0.9,1.8-0.6c0.6,0.1,1.3,0.1,1.9,0.1
			c0.9-0.1,1.7-0.4,2.4-1l0,0c0,0,5-2.1,6.9-10.2c0,0,1.4-1.8,1.4-2.2l-3,1.3c0,0,1,2.2,0.2,3.9c0,0-0.1-3.9-0.7-3.8
			c-0.1,0-1.5,0.7-1.5,0.7s1.7,3.7,0.4,6.5c0,0,0.5-4.6-1-6.2l-2.1,1.2c0,0,2,3.9,0.7,7c0,0,0.4-4.8-1.1-6.7l-1.9,1.5
			c0,0,1.9,3.8,0.7,6.4c0,0-0.2-5.6-1.2-6.1c-0.7,0.6-1.4,1.3-1.9,2.1c0,0,1.3,2.8,0.5,4.2c0,0-0.5-3.8-0.9-3.8c0,0-1.7,2.5-1.8,4.2
			c0.1-1.6,0.6-3.1,1.4-4.4c-1,0.2-1.8,0.6-2.5,1.3c0,0,0.3-1.8,3-1.9c0,0,1.4-1.9,1.7-2c0,0-2.7-0.2-4.3,0.5c0,0,1.4-1.7,4.8-0.9
			l1.9-1.5c0,0-3.5-0.5-5,0.1c0,0,1.7-1.5,5.5-0.4l2-1.2c-1.6-0.3-3.2-0.5-4.8-0.4c0,0,1.9-1,5.4,0.1l1.5-0.7c0,0-2.2-0.4-2.8-0.5
			s-0.7-0.2-0.7-0.2c1.4-0.2,2.8-0.1,4.1,0.5C445.7,616.8,448.7,615.7,448.6,615.5z"/>
		<ellipse opacity="0.1" fill="#6C63FF" enable-background="new    " cx="436.5" cy="631.1" rx="12.5" ry="2.1"/>
		<path fill="#6C63FF" d="M482.3,589.2c0,0-21.3-1.3-18.8,13.7c-0.3,1.6,0.5,3.1,1.9,3.8c0,0,0-1.1,2.2-0.7c0.8,0.1,1.5,0.2,2.3,0.1
			c1-0.1,2-0.5,2.8-1.2l0,0c0,0,6-2.5,8.3-12.3c0,0,1.7-2.1,1.7-2.7l-3.6,1.5c0,0,1.2,2.6,0.3,4.8c0,0-0.1-4.7-0.8-4.6
			c-0.1,0-1.9,0.9-1.9,0.9s2.1,4.5,0.5,7.8c0,0,0.6-5.6-1.2-7.5l-2.5,1.5c0,0,2.5,4.7,0.8,8.5c0,0,0.4-5.8-1.3-8.2l-2.3,1.8
			c0,0,2.3,4.6,0.9,7.8c0,0-0.2-6.8-1.4-7.3c0,0-2,1.8-2.3,2.5c0,0,1.6,3.3,0.6,5.1c0,0-0.6-4.5-1.1-4.6c0,0-2,3-2.2,5.1
			c0.1-1.9,0.7-3.7,1.7-5.4c-1.2,0.2-2.2,0.8-3.1,1.6c0,0,0.3-2.1,3.6-2.3c0,0,1.7-2.3,2.1-2.4c0,0-3.2-0.3-5.2,0.6
			c0,0,1.7-2,5.8-1.1l2.3-1.8c0,0-4.3-0.6-6.1,0.1c0,0,2.1-1.8,6.7-0.5l2.5-1.5c0,0-3.6-0.7-5.8-0.5c0,0,2.3-1.2,6.5,0.1l1.8-0.8
			c0,0-2.7-0.5-3.4-0.6s-0.8-0.3-0.8-0.3c1.7-0.3,3.4-0.1,5,0.6C478.6,590.8,482.4,589.5,482.3,589.2z"/>
		<ellipse opacity="0.1" fill="#6C63FF" enable-background="new    " cx="467.6" cy="608" rx="15.1" ry="2.6"/>
	</g>
	<g id="_x31_cf578eb-5ffb-4cd7-95b8-45aaaddab7e0_1_">
		
			<linearGradient id="SVGID_1_" gradientUnits="userSpaceOnUse" x1="505.9579" y1="184.3269" x2="505.9579" y2="552.2069" gradientTransform="matrix(1 0 0 -1 -41.9 633.3491)">
			<stop  offset="0" style="stop-color:#808080;stop-opacity:0.25"/>
			<stop  offset="0.54" style="stop-color:#808080;stop-opacity:0.12"/>
			<stop  offset="1" style="stop-color:#808080;stop-opacity:0.1"/>
		</linearGradient>
		<path fill="url(#SVGID_1_)" d="M816.7,443.8V81.1H111.4v341.8c9,7.5,19.8,13.8,31.1,19c5.6,2.6,11.2,4.9,17.1,7h648.7L816.7,443.8
			z"/>
		<path fill="#FFFFFF" d="M815.3,443.9V91.5H113v332.2c9,7.3,19.8,13.5,31,18.5c5.5,2.5,11.2,4.7,17,6.8h646L815.3,443.9z"/>
		<rect x="113" y="82.2" fill="#5A5773" width="702.4" height="18.6"/>
	</g>
	<g id="_x36_703b009-63cb-4af0-a0d7-9948e224c180_1_">
		<circle fill="#FFFFFF" cx="127" cy="91.5" r="4.8"/>
		<circle fill="#FFFFFF" cx="140" cy="91.5" r="4.8"/>
		<circle fill="#FFFFFF" cx="152.9" cy="91.5" r="4.8"/>
	</g>
	<g id="_x38_c4e1fb4-b9ff-4530-b767-610e84618ea6_1_">
		<rect x="292.5" y="141.8" fill="#6C63FF" width="116" height="72.9"/>
		<rect x="131.8" y="141.8" opacity="0.2" fill="#5A5773" enable-background="new    " width="116" height="72.9"/>
		<rect x="453.1" y="141.8" opacity="0.2" fill="#5A5773" enable-background="new    " width="116" height="72.9"/>
		<rect x="131.8" y="246" opacity="0.2" fill="#5A5773" enable-background="new    " width="116" height="72.9"/>
		<rect x="292.5" y="246" opacity="0.2" fill="#5A5773" enable-background="new    " width="116" height="72.9"/>
		<rect x="453.1" y="246" opacity="0.2" fill="#5A5773" enable-background="new    " width="116" height="72.9"/>
		<rect x="131.8" y="350.2" opacity="0.2" fill="#5A5773" enable-background="new    " width="116" height="72.9"/>
		<rect x="292.5" y="350.2" opacity="0.2" fill="#5A5773" enable-background="new    " width="116" height="72.9"/>
		<rect x="453.1" y="350.2" opacity="0.2" fill="#5A5773" enable-background="new    " width="116" height="72.9"/>
	</g>
	<g id="_x32_796dd85-6618-42ad-b8a0-d6b4cc80ab2d_1_">
		
			<linearGradient id="SVGID_2_" gradientUnits="userSpaceOnUse" x1="373.481" y1="0.12" x2="373.481" y2="473.3751" gradientTransform="matrix(1 0 0 -1 -41.9 633.3491)">
			<stop  offset="0" style="stop-color:#808080;stop-opacity:0.25"/>
			<stop  offset="0.54" style="stop-color:#808080;stop-opacity:0.12"/>
			<stop  offset="1" style="stop-color:#808080;stop-opacity:0.1"/>
		</linearGradient>
		<path fill="url(#SVGID_2_)" d="M387.7,324.4c0,0-20.8-38.1-17.3-44.3c3.5-6.2,6.1-15.2,6.1-15.2s7.7-5.3,7.7-7.4
			c0-2.1,6.1-7.1,9.3-9.3c3.2-2.2,1.6-12.4,0-13.6s-4.1-5.6-4.1-5.6s2.2-6.2,0-8.1c-2.2-1.9,0.3-3.7,0-5.6c-0.3-1.9,0-8.7,0-8.7
			c-2.6-3.6-5.5-5.3-8.2-5.9l-0.2-1l-1.4-5.8c0,0,6.7-12.8-4.2-19.5c-0.8-0.5-1.6-0.9-2.4-1.3c0,0,0-0.3-0.1-0.8
			c-0.1-1.9-0.6-6.7-1.6-9.8c-0.6-1.8-1.3-3-2.2-2.7c-0.2,0.1-0.4,0.2-0.6,0.3c-0.4,0.4-0.8,0.9-1.1,1.4l0,0c0,0,0,0.1-0.1,0.1l0,0
			c-1.2,2.2-2.1,4.6-2.6,7.1c-0.3,1.5-0.6,3-0.7,4.4l0,0c-0.5,0.9-0.9,1.8-1.2,2.8c-1.3,3.4-2.8,9.3-0.1,13.7
			c2.4,3.7,5.6,8.8,7.9,12.5l0.1,0.1l0.1,0.2l-0.2,0.2v0.6l0.2,3.1l1.8,27c-0.5-0.2-1.1-0.3-1.6-0.3c-0.8-0.1-1.6-0.2-2.4-0.2
			c-1.6-6.1-5.9-11.9-6.7-18.3c-0.1-0.6-0.1-1.3-0.1-1.9c0.1-4,1.1-8.1,1-12.1c0-0.7,0-1.5-0.1-2.2l0,0c0-0.2,0-0.4-0.1-0.6
			c-0.8-6-4.5-11.1-9.9-13.8c-1.9-0.9-3.9-1.5-5.7-2.6c-4.2-2.3-6.9-6.6-10.7-9.5c-2.8-2.2-7-3.3-10.2-2.2c-1.7,0.3-3.3,0.6-5,1l0,0
			c-4,1-7.8,2.6-11.3,4.7c-0.5,0.3-1,0.6-1.4,0.9c-1,0.7-1.8,1.6-2.3,2.7c-0.3,0.9-0.4,1.9-0.4,2.9c0,0.7,0,1.4,0,2.1
			c-0.2,11.9-13,21-14,32.6c0,0.3,0,0.5-0.1,0.8c0,0.1,0,0.2,0,0.3c0,0.3,0,0.7,0,1l0,0c0,0.2,0,0.3,0,0.5s0,0.3,0,0.5
			c0.2,5.1,2.8,9.8,3.3,14.9c0,0.5,0.1,0.9,0.1,1.3c-0.1,2.3-0.5,4.6-1.3,6.8c-1.6,0.4-3.2,1.1-4.6,1.9c-3.9,2.5-10.9,6.8-13.5,15.1
			c-0.7,2.1-1,4.4-1,6.6c0,7.9-0.8,15.8-2.2,23.6c-0.3,2-0.8,3.9-1.4,5.8c-0.1,0.2-0.1,0.4,0,0.6l-1.5,20l-0.3,3.5l-0.4,5
			c0,0,0.1,0.3,0.3,0.8c0.2,0.8,0.4,1.5,0.6,2.3c0.4,1.7,0.5,3.5,0.2,5.2c-0.2,0.7-0.5,1.4-1.1,1.9c0,0-0.1,0.1-0.1,0.1
			c-0.4,0.6-0.8,2.4-1.2,5.1c-0.1,1-0.3,2.2-0.4,3.5c-0.7,7.9-1.2,19.7-1.5,29.5c-0.3,9.6-0.4,17.3-0.4,17.3c1.2,0.8,2.6,1.5,4,2
			c-0.1,0.3-0.2,0.5-0.3,0.8c-1.3,3.3-2.1,6.7-2.4,10.2c-0.6,7.3,1.4,15.4,11.6,19.5c0.6,0.3,1.3,0.5,2,0.7c2.2,0.6,3.9,0.4,5.1-0.3
			c0,0.4,0.1,0.9,0.1,1.3c0.1,1.8,0.2,3.5,0.2,4.8c0.3,8.7,2.5,23.8,2.5,23.8s0.7,6.2,0.1,8.1s0,9.3,0,9.3s2.2,3.7,0,5.6
			c-2.2,1.9-2.9,11.1-2.2,12.4c0,0,0,0.1,0,0.1c0.5,3.1-2.3,48.8-2.3,48.8s-2.6,7-4.7,14.3c-2,7.1-3.6,14.4-1.7,15.8
			c0.9,0.7,3.1,1.2,5.9,1.6c0,0.3,0,0.6-0.1,0.9c-0.3,3.3-0.7,6.8-1.3,7.7c-0.9,1.3-1.8,11-2.3,16.3l0,0.6c-0.9,2.3-1.7,4.6-2.4,6.9
			c0,0-7.1,17.8-4.7,22.4c0.2,0.4,0.5,0.8,0.9,1.1l0,0c0.1,0.1,0.1,0.1,0.2,0.2c3.4,2.7,12,3.3,15.1,3.4l-0.1,4.4v0.2h4v-0.1
			c0-0.6,0.1-3.1,0.2-6.5c0-0.6,0-1.2,0.1-1.9c0-0.5,0.1-1,0.1-1.6c1.2-3.2,1.8-6.5,1.8-9.9c0-3.9,0.5-7.7,1.6-11.5
			c0.5-1.9,1.2-3.8,2.1-5.6c0,0,1.3-6.7-0.5-11.4c-0.3-0.9-0.8-1.8-1.5-2.6c0-0.2,0-0.3,0-0.5c0-0.2,0-0.4,0-0.5c0-0.2,0-0.3,0-0.5
			c0-3.2,0.3-6.4,0.9-9.5c0,0,0-0.1,0-0.1c0.1-0.3,0.1-0.5,0.2-0.7l0-0.2l1.3,0c4,0.1,7,0.1,7,0.1s3.2-16.4,2.9-23.5
			c0-0.3,0-0.6,0-1c-0.1-7.1,1.9-16.7,1.9-16.7l2.6-25.1c0,0-1.3-4.3,0-7.4c0.8-1.9,2.4-5.5,3.6-7.9c0.5-1.1,1-2,1.1-2.4l0.1-0.2
			c-0.4-0.1-0.8-0.3-1.1-0.6l0,0c-1-0.7-2-2.1,1.1-4.1c4.8-3.1,3.2-10.8,3.2-10.8s-1.4-2.8,0.3-5.3c1.7-2.5,0-11.8,0-11.8
			c1.4-2.5,2.5-5.1,3.3-7.7c1.2-3.7,4.2-21.8,5.6-30.6c0.5-2.9,0.7-4.7,0.7-4.7l0,0.5l0,0.5l0,0l0.4,4.1l0.1,0.5l0.7,7.8
			c0,0,1.5,20.5,0.6,28.6c0,0.1,0,0.1,0,0.1c-0.1,0.8-0.3,1.7-0.5,2.4c-1.7,3.9-1.4,19.2-1.3,22.6c0,0.3,0,0.5,0,0.7s-1.2,3-0.9,5.2
			l0,0c0.1,0.6,0.3,1.1,0.6,1.6c0.4,0.7,0.6,1.6,0.6,2.4v0.1c0,0.4,0,0.7-0.1,1.1c-0.2,1.4-0.6,2.8-1.1,4.2c0,0-1.7,4.5-1.1,6.9l0,0
			c0.1,0.3,0.2,0.6,0.4,0.8c0.2,0.3,0.2,0.6,0.2,0.9c0,0,0,0.1,0,0.1c0.6,5-0.9,27-1.9,39.1c-0.4,4.8-0.6,8-0.6,8l-2.5,26.3l0.3,0.2
			c0.3,0.2,0.8,0.6,1.6,1c0,0,0,0,0,0.1l-0.1,0.8c-0.4,2.5-0.9,5.5-1.4,7.7c0,0.2-0.1,0.3-0.1,0.5c-1,0.2-1.9,0.5-2.7,1.1
			c-5.4,9.6-3,17.2,0,19.4c0.9,0.6,1.4,2.4,1.8,4.5l0.7,9.6c0,0.4,0,0.7,0,1.1c0,0.3,0,0.6,0.1,0.9l0.2,2.9l0.3,4h2.5v-4.9h0.1
			c3.9,0.1,10.1,0.3,12.9,0.1h0.1c0.3,0,0.5-0.1,0.7-0.1c0.1,0,0.3-0.1,0.4-0.1c1.4-0.7,5-10.9,1.8-13.2s-4-8.9-4-8.9
			c-0.3-0.9-0.6-1.7-0.9-2.5c0-0.2,0-0.3,0-0.5c-0.1-3.2-0.1-6.6,0.4-8.5c0.5-2.1,0.7-6.4,0.8-10.1c0-0.3,0-0.6,0-0.9V579
			c0.6-0.1,1.1-0.3,1.7-0.5l0.1-0.1c1-0.4,1.9-1,2.8-1.6l9.1-40.2l1-4.7l5.4-26.6c0,0-1.9-9.3,0-10.8c0.7-0.6,0.9-3,0.9-5.7
			c-0.1-4.9-0.9-11-0.9-11s2.6-4,3.9-6.5c1.3-2.5,0-9,0-9l2.5-14.9c0,0,2.9-17.7,9.9-32.5c5.2-10.9,1.9-40.5-1.5-56.2
			c-0.1-0.4-0.2-0.8-0.3-1.2v-0.1c1.6-0.8,3.5-1.7,5.6-2.7l0.8-0.4c2.6-1.2,5.4-2.5,7.9-3.6l0.2-0.1c1.8-0.8,3.6-1.5,5.5-2.1
			c0.6-0.2,1.1-0.3,1.7-0.3C401.2,348,387.7,324.4,387.7,324.4z M287.4,374.8h1.3c-0.2,0.3-0.3,0.6-0.5,0.9
			c-0.1,0.2-0.2,0.3-0.3,0.5c-0.5,1-0.9,2.1-1.3,3.1c0.1-1.1,0.3-2.3,0.5-3.6C287.3,375.5,287.4,375.1,287.4,374.8z M283.8,394.1
			c0,0,0-0.1,0-0.1l-0.1-0.3c-0.1-0.2-0.2-0.5-0.2-0.7c0.5-0.1,0.9-0.3,1.4-0.5h0.1c0,0.1,0,0.2,0,0.2c0,0.3-0.1,0.7-0.1,1l0,0
			c0,0,0,0.1,0,0.1c0,0.3-0.1,0.5-0.1,0.8c-0.1,0.5-0.1,1.1-0.2,1.5c-0.1-0.5-0.3-0.9-0.4-1.4C284,394.6,283.9,394.4,283.8,394.1
			L283.8,394.1z"/>
		<path fill="#EFB7B9" d="M380,205.6l-8,2.8l-2.9-4.8c-2.2-3.7-5.3-8.8-7.6-12.5c-4-6.5,1.2-16.4,1.2-16.4s0.9-9.9,4.3-13
			c3.4-3.1,4.3,13,4.3,13c13.6,6.2,6.3,20.7,6.3,20.7l1.3,5.8L380,205.6z"/>
		<path opacity="0.1" enable-background="new    " d="M380,205.6l-8,2.8l-2.9-4.8v-0.4c0,0,4.6-3.2,9.9-2L380,205.6z"/>
		<path fill="#FF6484" d="M367.1,238.1l4-3.4l-2-30.6c0,0,10.4-7.1,18.1,4c0,0-0.3,6.8,0,8.6c0.3,1.9-2.2,3.7,0,5.6c2.2,1.8,0,8,0,8
			s2.4,4.3,4,5.6s3.1,11.4,0,13.6c-3.1,2.2-8.9,7.1-8.9,9.3c0,2.2-7.4,7.4-7.4,7.4l-6.5-8.6L367.1,238.1z"/>
		<path fill="#EFB7B9" d="M280.4,423.6c-15-6.3-11.6-21.8-8.8-29.7c0.6-1.6,1.2-3.1,2-4.6l8.4-5.1c0,0,1.7,4.4,3.5,10.2
			C289.7,408.1,294.6,429.6,280.4,423.6z"/>
		<path fill="#EFB7B9" d="M300.9,565c-1,2-1.8,4.1-2.2,6.2c-0.7,3.5-1.1,7.1-1,10.6c0.1,2.5,0.3,4.1,0.3,4.1l-16.7,11.5
			c0,0,0.1-1.3,0.3-3.3c0.4-5.2,1.3-15,2.2-16.3c0.6-0.9,1-4.4,1.3-7.7c0.3-3.3,0.4-6.1,0.4-6.1S305.5,556.6,300.9,565z"/>
		<path fill="#EFB7B9" d="M340.3,573.3c0,0,0,3.2-0.1,6.9c-0.1,3.7-0.3,8.1-0.8,10.1c-0.4,1.9-0.5,5.3-0.4,8.5c0.1,3.7,0.4,7,0.4,7
			s-17-16.1-15.3-17.4c0.5-0.3,0.9-1.7,1.3-3.5c0.5-2.2,1-5.2,1.3-7.7c0.4-3,0.7-5.4,0.7-5.4L340.3,573.3z"/>
		<path opacity="0.1" enable-background="new    " d="M300.9,565c-1,2-1.8,4.1-2.2,6.2c-4.6-0.1-9.1-0.5-13.6-1
			c0.3-3.2,0.4-6.1,0.4-6.1S305.5,556.6,300.9,565z"/>
		<path opacity="0.1" enable-background="new    " d="M340.3,573.3c0,0,0,3.2-0.1,6.9c-5.3,1.4-10.8-1.4-13.4-3
			c0.4-3,0.7-5.4,0.7-5.4L340.3,573.3z"/>
		<path fill="#444053" d="M375.1,415.6c-6.8,14.8-9.6,32.4-9.6,32.4l-2.5,14.8c0,0,1.2,6.5,0,8.9c-1.2,2.5-3.7,6.5-3.7,6.5
			s1.9,15.1,0,16.7c-1.9,1.5,0,10.8,0,10.8l-6.2,31.1l-8.6,40.1c-8.3,6.8-19.4-1.8-19.4-1.8l2.4-26.2c0,0,3.7-46,2.2-47.8
			c-1.5-1.9,0.6-7.7,0.6-7.7s2.2-5.6,0.6-7.7c-1.5-2.2,0.3-6.8,0.3-6.8s-0.6-18.8,1.2-23.2c1.9-4.3,0-31.1,0-31.1l-0.7-8.3l-0.4-4.6
			l0-0.5c0,0-0.3,1.8-0.7,4.7c-1.4,8.7-4.3,26.8-5.4,30.5c-0.8,2.7-1.8,5.3-3.2,7.7c0,0,1.6,9.3,0,11.7s-0.2,5.2-0.2,5.2
			s1.5,7.7-3.1,10.8c-4.6,3.1,0,4.6,0,4.6s-3.4,7.4-4.6,10.5c-1.2,3.1,0,7.4,0,7.4l-2.5,25c0,0-2.2,10.5-1.9,17.6
			c0.3,7.1-2.8,23.5-2.8,23.5s-23.8,0-27.4-2.8c-3.7-2.8,6.1-29.9,6.1-29.9s2.8-47.5,2.2-48.8c-0.6-1.2,0-10.5,2.2-12.3
			c2.2-1.8,0-5.6,0-5.6s-0.6-7.4,0-9.3s-0.1-8-0.1-8s-2.1-15.1-2.4-23.8c-0.3-8.6-1.9-28.1-1.9-28.1s1.6-12,1.9-17.7
			c0.1-2.1,1-4.7,2.2-7.2c1.3-2.8,2.9-5.5,4.6-8.1c0,0,73.1-21.6,76.2-19.5c0.8,0.6,2,4.4,3.2,10.1
			C376.9,375.2,380.1,404.7,375.1,415.6z"/>
		<circle fill="#A1616A" cx="330.1" cy="205.6" r="21.3"/>
		<path opacity="0.1" enable-background="new    " d="M373.7,359.6c-2.5,1.3-4.1,2.1-4.1,2.1s-34.6,16.4-44.4,15.4
			c-7.6-0.7-27-0.3-35.5-0.1c1.3-2.8,2.9-5.5,4.6-8.1c0,0,73.1-21.6,76.2-19.5C371.3,350.1,372.5,354,373.7,359.6z"/>
		<path fill="#FF6484" d="M315.3,239.6c0,0-19.7,3.1-24.4,6.2c-4.7,3.1-13.9,9-13.9,21.6s-2.2,25.6-3.4,29.3
			c-1.2,3.7,19.4,33.6,19.4,33.6l-7.4,45.4c0,0,29.7-0.9,39.5,0c9.9,0.9,44.4-15.4,44.4-15.4s20.4-10.8,24.7-11.1
			c4.3-0.3-8.6-23.8-8.6-23.8s-20.1-38-16.7-44.1c3.4-6.2,5.9-15.1,5.9-15.1l-3.7-31.5c0,0-5.6-1.9-10.2,1.5
			c-4.6,3.4-20.4,1.5-20.4,1.5L315.3,239.6z"/>
		<path opacity="0.1" enable-background="new    " d="M281.8,294.6l-7.7,2.2l-2.1,29c0,0,2.8,7.7,0,10.2s-3.4,55.3-3.4,55.3
			s9,6.5,19.4,1.5c0,0-1.5-5.9,3.1-27.2s4.6-32.1,4.6-32.1s0-26.5,2.2-30.9s0-15.1,0-15.1s-4.3-5.9-4-8S281.8,294.6,281.8,294.6z"/>
		<path opacity="0.1" enable-background="new    " d="M285.5,394.5c-4.5,1.5-9.5,1.4-13.9-0.5c0.6-1.6,1.2-3.1,2-4.6l8.4-5.1
			C281.9,384.2,283.7,388.6,285.5,394.5z"/>
		<path fill="#FF6484" d="M281.3,294.6l-7.7,2.2l-2.2,29c0,0,2.8,7.7,0,10.2s-3.4,55.3-3.4,55.3s9,6.5,19.4,1.5
			c0,0-1.5-5.9,3.1-27.2s4.6-32.1,4.6-32.1s0-26.5,2.2-30.9s0-15.1,0-15.1s-4.3-5.9-4-8S281.3,294.6,281.3,294.6z"/>
		<path opacity="0.1" enable-background="new    " d="M360.3,299.2c0,0-4,34.6-15.7,41.1C344.6,340.3,370.8,332.9,360.3,299.2z"/>
		<path opacity="0.1" enable-background="new    " d="M301.4,302.3c0,0,14.5,7.1,11.1,12C309.1,319.3,301.4,302.3,301.4,302.3z"/>
		<path opacity="0.1" enable-background="new    " d="M301.4,316.5c0,0,9.3,9.6,7.4,13C306.9,332.9,301.4,316.5,301.4,316.5z"/>
		<path opacity="0.1" enable-background="new    " d="M376.1,237.2c0,0,3.6,6.2,4,10.2C380.4,251.4,376.1,237.2,376.1,237.2z"/>
		<path opacity="0.1" enable-background="new    " d="M376.1,228.8c0,0,1.8-1.5,6.5,0C387.2,230.4,376.1,228.8,376.1,228.8z"/>
		<path opacity="0.1" enable-background="new    " d="M358.2,409.2c-7.6,1.1-15.4,0.1-22.6-2.9l-3.9,10l-0.4-4.6
			c0.6-3.9,1.9-8,4.3-9.1C335.7,402.6,344.2,409.5,358.2,409.2z"/>
		<path opacity="0.1" enable-background="new    " d="M294.9,422.2c0,0,19,3.9,24.3,3.2L294.9,422.2z"/>
		<path opacity="0.1" enable-background="new    " d="M296.9,427.2c0,0,8.1-0.3,12.2,1.3L296.9,427.2z"/>
		<path opacity="0.1" enable-background="new    " d="M297.8,430.5c3.7,0.8,7.4,1.3,11.2,1.5L297.8,430.5z"/>
		<path opacity="0.1" enable-background="new    " d="M297.4,473c0.3-0.2,16.2-3.9,18.2-1.3L297.4,473z"/>
		<path opacity="0.1" enable-background="new    " d="M297.4,477.9c0,0,13.8-1.6,14.1,0S297.4,477.9,297.4,477.9z"/>
		<path opacity="0.1" enable-background="new    " d="M297.4,482.3c0,0,14.7-3,16.4-2.3S297.4,482.3,297.4,482.3z"/>
		<path opacity="0.1" enable-background="new    " d="M298.1,586l-16.7,11.5c0,0,0.1-1.3,0.3-3.3c3.7-9.1,8.5-13.9,8.5-13.9
			c3.8-1,6.1-0.1,7.6,1.7C297.8,584.4,298.1,586,298.1,586z"/>
		<path fill="#444053" d="M299.7,596.3c-2.4,5.4-3.5,11.2-3.5,17.1c0.1,4.8-1.1,9.6-3.5,13.7c-0.3,0.6-0.7,1.1-1.2,1.7
			c0,0-11.6-0.1-15.6-3.5c-0.5-0.4-0.8-0.8-1.1-1.3c-2.3-4.6,4.5-22.3,4.5-22.3c3.6-13.7,10.9-21,10.9-21
			C303.1,577.3,299.7,596.3,299.7,596.3z"/>
		<path opacity="0.1" enable-background="new    " d="M292.7,627c-0.3,0.6-0.7,1.1-1.2,1.7c0,0-11.6-0.1-15.6-3.5
			c2-6.6,8.4-26.6,11.3-23.2C290,605.3,292,620.6,292.7,627z"/>
		<path fill="#444053" d="M291.1,603.3l-0.8,29.9h3.9c0,0,0.6-26.2,2.4-29.9C298.3,599.6,291.1,603.3,291.1,603.3z"/>
		<path opacity="0.1" enable-background="new    " d="M339.4,605.8c0,0-17-16.1-15.3-17.4c0.5-0.3,0.9-1.7,1.3-3.5
			c3.3-0.6,8.9,0.8,13.6,13.9C339.1,602.4,339.4,605.8,339.4,605.8z"/>
		<path fill="#444053" d="M341.9,623.7c-0.1,0.1-0.3,0.1-0.4,0.1c-2,0.3-9.4,0.1-13.5,0c-1.6-0.1-2.8-1.3-2.8-2.9
			c0-1.1,0-2.5-0.1-3.9c-0.2-4.6-0.7-10-2.4-11.2c-2.9-2.2-5.2-9.8,0-19.3c0,0,9.9-7.6,17.1,15.2c0,0,0.7,6.5,3.8,8.8
			C346.8,612.8,343.3,623.1,341.9,623.7z"/>
		<path opacity="0.1" enable-background="new    " d="M341.5,623.8c-2,0.3-9.4,0.1-13.5,0c-1.6-0.1-2.8-1.3-2.8-2.9
			c0-1.1,0-2.5-0.1-3.9c1.3-5.5,3.1-11.2,5.4-12.5C330.5,604.5,337.5,603.7,341.5,623.8z"/>
		<polygon fill="#444053" points="324,603.8 325.8,628.7 328.2,628.7 328.2,601.7 		"/>
		<path opacity="0.1" enable-background="new    " d="M329.8,171.7c-6.7,0.5-13.2,2.6-19,6.1c-1.5,0.9-3,2-3.6,3.6
			c-0.5,1.4-0.3,3-0.3,4.4c0.2,12.8-14,22.4-13.6,35.2c0.2,5.1,2.7,9.8,3.2,14.8c0.8,8.4-4.2,16.2-9,23.1c4.9,0.3,9.8-1.3,13.5-4.5
			c5,16.8,5.7,34.6,1.9,51.7h6.8c0.7,0,1.4,0,2,0.2c0.6,0.3,1.1,0.7,1.6,1.2c6.4,6.4,10.7,15.7,8.2,24.4l14.5-5.4
			c3.5-1.3,7-2.6,10-4.8c3-2.1,5.6-5.3,6.2-8.9c0.4-2.2,0.3-4.9,2.1-6.2c0.9-0.5,1.9-0.8,2.9-1.1c4-1.4,5.8-6,6.6-10.2
			c1-5.1,1.3-10.3,0.9-15.5c-0.6-8.7-3.2-17.5-1.1-25.9c1.2-4.8,3.8-9.2,4.1-14.1c0.3-8.1-6-15.1-6.9-23.1
			c-0.7-5.6,1.4-11.3,0.7-16.9c-0.7-5.9-4.3-11-9.5-13.8c-1.8-0.9-3.7-1.5-5.5-2.6c-4-2.3-6.6-6.5-10.3-9.4c-3.7-2.9-9.7-4-12.5-0.2
			L329.8,171.7z"/>
		<path fill="#925978" d="M329.8,170.8c-6.7,0.5-13.2,2.6-19,6.1c-1.5,0.9-3,2-3.6,3.6c-0.5,1.4-0.3,3-0.3,4.4
			c0.2,12.8-14,22.4-13.6,35.2c0.2,5.1,2.7,9.8,3.2,14.8c0.8,8.4-4.2,16.2-9,23.2c4.9,0.3,9.8-1.3,13.5-4.5
			c5,16.8,5.7,34.6,1.9,51.7h6.8c0.7,0,1.4,0,2,0.3c0.6,0.3,1.1,0.7,1.6,1.2c6.4,6.4,10.7,15.7,8.2,24.4l14.5-5.4
			c3.5-1.3,7-2.6,10-4.8c3-2.1,5.6-5.3,6.2-8.9c0.4-2.2,0.3-4.9,2.1-6.2c0.9-0.5,1.9-0.8,2.9-1.1c4-1.4,5.8-6,6.6-10.2
			c1-5.1,1.3-10.3,0.9-15.5c-0.6-8.7-3.2-17.5-1.1-25.9c1.2-4.8,3.8-9.2,4.1-14.1c0.3-8.1-6-15.1-6.9-23.1
			c-0.7-5.6,1.4-11.3,0.7-16.9c-0.7-5.9-4.3-11-9.5-13.8c-1.8-0.9-3.7-1.5-5.5-2.5c-4-2.3-6.6-6.5-10.3-9.4s-9.7-4-12.5-0.2
			L329.8,170.8z"/>
		<g opacity="0.1">
			<path d="M306.9,181.8c0,0.3,0,0.6,0,0.9C306.9,182.4,306.9,182.1,306.9,181.8z"/>
			<path d="M360.8,211.5c0.3-3.9,1.1-7.9,0.8-11.8C361.3,203.6,360.5,207.6,360.8,211.5z"/>
			<path d="M296.5,231c-0.4-4.6-2.6-8.9-3.1-13.5c-0.1,0.8-0.1,1.7-0.1,2.5c0.2,5,2.7,9.7,3.2,14.7
				C296.6,233.5,296.6,232.3,296.5,231z"/>
			<path d="M363.7,249.3c-0.7,3-0.9,6.1-0.7,9.2c0.1-1.8,0.3-3.6,0.7-5.3c1.2-4.8,3.8-9.2,4.1-14.1c0-0.9,0-1.7-0.1-2.6
				C367.1,240.9,364.8,245,363.7,249.3z"/>
			<path d="M301.1,249.7c-3.1,2.6-6.9,4.1-10.9,4.4c-0.8,1.3-1.7,2.6-2.6,3.9c4.9,0.3,9.8-1.3,13.5-4.5c2.7,9,4.2,18.4,4.3,27.8
				C305.6,270.6,304.1,259.9,301.1,249.7z"/>
			<path d="M363.9,290.7c-0.8,4.2-2.6,8.8-6.6,10.2c-1,0.2-2,0.6-2.9,1.1c-1.8,1.3-1.7,4-2.1,6.2c-0.6,3.7-3.2,6.8-6.2,8.9
				c-3,2.1-6.6,3.5-10,4.8l-13.9,5.2c-0.1,1.4-0.3,2.8-0.7,4.1l14.5-5.4c3.5-1.3,7-2.6,10-4.8c3-2.1,5.6-5.3,6.2-8.9
				c0.4-2.2,0.3-4.9,2.1-6.2c0.9-0.5,1.9-0.8,2.9-1.1c4-1.4,5.8-6,6.6-10.2c0.8-4.3,1.2-8.7,1-13.1
				C364.8,284.5,364.5,287.6,363.9,290.7z"/>
			<path d="M313.4,302.8c-0.4-0.5-1-0.9-1.6-1.2c-0.6-0.2-1.3-0.3-2-0.3h-6.1c-0.2,1.3-0.5,2.6-0.7,3.9h6.8c0.7,0,1.4,0,2,0.3
				c0.6,0.3,1.1,0.7,1.6,1.2c4.7,4.7,8.2,10.9,8.8,17.4C323,316.3,319,308.4,313.4,302.8z"/>
		</g>
		<path opacity="0.1" enable-background="new    " d="M279.5,328.1c0,0,5.5-2.3,6.7,0C287.5,330.4,279.5,328.1,279.5,328.1z"/>
		<path opacity="0.1" enable-background="new    " d="M281.4,332c0,0,5.5-2.3,6.8,0C289.4,334.3,281.4,332,281.4,332z"/>
	</g>
	<g id="_x35_f43f84a-a268-4bb5-a31a-6b0c09aee323_1_">
		<path opacity="0.1" fill="#6C63FF" enable-background="new    " d="M623.3,32.7c0,0-28.2-1.7-24.9,18.1c0,0-0.7,3.5,2.5,5.1
			c0,0,0.1-1.5,2.9-1c1,0.2,2,0.2,3.1,0.1c1.4-0.1,2.7-0.6,3.7-1.5l0,0c0,0,7.9-3.3,11-16.2c0,0,2.3-2.8,2.2-3.6l-4.8,2
			c0,0,1.6,3.4,0.3,6.3c0,0-0.1-6.2-1.1-6c-0.2,0-2.5,1.2-2.5,1.2s2.8,6,0.7,10.3c0,0,0.8-7.4-1.6-9.9l-3.4,2c0,0,3.3,6.2,1.1,11.2
			c0,0,0.6-7.7-1.8-10.7l-3,2.4c0,0,3.1,6.1,1.2,10.2c0,0-0.2-9-1.9-9.7c0,0-2.7,2.3-3.1,3.3c0,0,2.1,4.4,0.8,6.7c0,0-0.8-6-1.5-6
			c0,0-2.6,4-2.9,6.7c0.1-2.5,0.9-5,2.3-7.1c-1.5,0.3-2.9,1-4,2.1c0,0,0.4-2.8,4.7-3.1c0,0,2.2-3,2.8-3.2c0,0-4.3-0.4-6.9,0.8
			c0,0,2.3-2.7,7.6-1.5l3-2.4c0,0-5.6-0.7-8,0.1c0,0,2.7-2.3,8.8-0.6l3.3-1.9c0,0-4.8-1-7.6-0.7c0,0,3-1.6,8.6,0.1l2.3-1
			c0,0-3.5-0.7-4.5-0.8c-1-0.1-1.1-0.4-1.1-0.4c2.2-0.4,4.5-0.1,6.6,0.7C618.4,34.8,623.4,33,623.3,32.7z"/>
		<path opacity="0.1" fill="#6C63FF" enable-background="new    " d="M583.1,16.7c0,0-23.7,15.4-9.3,29.3c0,0,1.5,3.2,5,2.6
			c0,0-0.8-1.2,1.8-2.5c0.9-0.5,1.8-1,2.6-1.7c1.1-0.9,1.8-2.1,2.1-3.5l0,0c0,0,4.4-7.3-0.7-19.6c0,0,0.2-3.6-0.3-4.2l-2.6,4.4
			c0,0,3.3,1.8,4,4.9c0,0-3.8-4.9-4.4-4.2c-0.1,0.1-1.3,2.4-1.3,2.4s5.8,3.2,6.7,7.9c0,0-3.7-6.4-7.1-7l-1.5,3.6c0,0,6.3,3,7.5,8.4
			c0,0-4.1-6.6-7.8-7.6l-1,3.7c0,0,6.1,3.1,7.1,7.6c0,0-5.5-7.1-7.2-6.7c0,0-0.7,3.5-0.5,4.4c0,0,4.3,2.3,4.6,5c0,0-4.2-4.4-4.7-4
			c0,0,0.2,4.8,1.6,7.1c-1.4-2.1-2.2-4.5-2.4-7.1c-1.1,1.1-1.8,2.6-2,4.1c0,0-1.3-2.5,2-5.2c0,0,0-3.7,0.3-4.2c0,0-3.6,2.2-5.1,4.7
			c0,0,0.3-3.5,5.3-5.7l1-3.7c0,0-5,2.7-6.4,4.8c0,0,0.8-3.5,6.7-5.7l1.5-3.5c0,0-4.4,2-6.6,4c0,0,1.5-3.1,7-5l1.3-2.2
			c0,0-3.2,1.5-4.1,2c-0.9,0.5-1.1,0.3-1.1,0.3c1.6-1.6,3.6-2.8,5.7-3.3C580.4,21.3,583.3,16.9,583.1,16.7z"/>
		<path opacity="0.1" fill="#6C63FF" enable-background="new    " d="M547,34.6c0,0-14.2,24.5,5,30.3c0,0,2.8,2.2,5.7,0
			c0,0-1.3-0.7,0.4-3c0.6-0.8,1.1-1.7,1.5-2.7c0.5-1.3,0.6-2.7,0.3-4l0,0c0,0,0.6-8.6-9.6-17.1c0,0-1.5-3.3-2.2-3.6l-0.3,5.2
			c0,0,3.8,0.1,5.8,2.5c0,0-5.6-2.6-5.9-1.7c-0.1,0.2-0.1,2.7-0.1,2.7s6.7,0.2,9.6,4c0,0-6.2-4-9.5-3l0.2,3.9c0,0,7-0.1,10.5,4.1
			c0,0-6.7-4-10.4-3.3l0.7,3.8c0,0,6.8,0,9.7,3.5c0,0-8.2-3.8-9.5-2.7c0,0,0.9,3.4,1.6,4.2c0,0,4.9,0.1,6.4,2.3c0,0-5.7-2-6-1.4
			c0,0,2.4,4.1,4.7,5.6c-2.2-1.2-4-3-5.3-5.2c-0.4,1.5-0.4,3.1,0.1,4.6c0,0-2.3-1.6-0.6-5.6c0,0-1.7-3.3-1.6-3.9
			c0,0-2.2,3.7-2.4,6.5c0,0-1.3-3.2,2.1-7.5l-0.8-3.8c0,0-3.2,4.7-3.5,7.2c0,0-0.9-3.5,3.4-8.2l-0.3-3.8c0,0-3.1,3.8-4,6.5
			c0,0-0.1-3.4,4-7.6l0.1-2.6c0,0-2.2,2.8-2.8,3.7s-0.8,0.8-0.8,0.8c0.7-2.2,1.9-4.1,3.6-5.6C546.8,39.9,547.3,34.6,547,34.6z"/>
	</g>
	<path fill="#6C63FF" d="M668.7,313.5c-5.9,0-10.6,4.7-10.6,10.6s4.7,10.6,10.6,10.6c5.9,0,10.6-4.7,10.6-10.6l0,0
		C679.3,318.2,674.6,313.5,668.7,313.5z M637.7,230.2v10.6h10.6l19.1,38.7l-8,13c-0.9,1.5-1.3,3.3-1.3,5c0,7.1,4.9,10.6,11.4,10.6
		h62v-10.2h-60.7c-0.7,0-1.3-0.5-1.3-1.2c0-0.1,0-0.1,0-0.2c0.1-0.5,0.3-0.9,0.6-1.3l5.3-8.4h39.5c3.9,0,7.5-2.1,9.3-5.6l19.1-32.8
		c0.4-0.8,0.6-1.7,0.5-2.7c0-2.8-2.3-5.1-5.2-5c-0.1,0-0.1,0-0.2,0H660l-5-10.6L637.7,230.2z M721,313.5c-5.9,0-10.6,4.8-10.6,10.6
		c0,5.9,4.8,10.6,10.6,10.6c5.9,0,10.6-4.8,10.6-10.6C731.6,318.2,726.8,313.5,721,313.5z"/>
	<polygon fill="#FFFFFF" points="707.4,259.6 698.5,259.6 698.5,250.7 691.8,250.7 691.8,259.6 682.9,259.6 682.9,266.2 
		691.8,266.2 691.8,275.1 698.5,275.1 698.5,266.2 707.4,266.2 	"/>
</g>
</svg>
