<?xml version="1.0" encoding="utf-8"?>
<!-- Generator: Adobe Illustrator 24.2.0, SVG Export Plug-In . SVG Version: 6.00 Build 0)  -->
<svg version="1.1" id="b7d9a68e-ec0f-41b1-b903-e0a83b419864"
	 xmlns="http://www.w3.org/2000/svg" xmlns:xlink="http://www.w3.org/1999/xlink" x="0px" y="0px" viewBox="0 0 847.7 656"
	 style="enable-background:new 0 0 847.7 656;" xml:space="preserve">
<style type="text/css">
	.st0{fill:#3F3D56;}
	.st1{fill:#F2F2F2;}
	.st2{fill:#CCCCCC;}
	.st3{fill:#6C63FF;}
	.st4{fill-rule:evenodd;clip-rule:evenodd;fill:#6C63FF;}
	.st5{fill:#FFB8B8;}
	.st6{fill:#2F2E41;}
</style>
<path class="st0" d="M455,529l-10.7-82.6l0-0.1c0-5,4-9,9-9h104c5,0,9,4,9,9l-7.8,60.1l-2.9,22.6c0,4.9-4.1,8.9-9,8.9H464
	C459.1,538,455,534,455,529z M557.3,439.3h-104c-3.8,0-7,3.1-7,6.9l7.7,59.9l2.9,22.7l0,0.1c0,3.9,3.1,7,7,7h82.7c3.9,0,7-3.1,7-7
	l10.7-82.7C564.3,442.4,561.2,439.3,557.3,439.3z"/>
<ellipse class="st1" cx="505.3" cy="453" rx="56" ry="9.3"/>
<path class="st2" d="M500.5,448.8c7.7-19,11.7-39.3,11.6-59.8c0-20.5-3.9-40.8-11.4-59.9c-4.2-10.7-9.7-20.9-16.2-30.3
	c-0.9-1.3,1.2-2.6,2.2-1.3c11.8,17.2,20,36.5,24.3,56.9c4.3,20.3,4.8,41.2,1.5,61.6c-1.9,11.5-5.1,22.7-9.5,33.4
	C502.3,450.9,499.9,450.2,500.5,448.8L500.5,448.8z"/>
<path class="st2" d="M510.8,357.8c3.4-3.7,4.3-8.8,4.3-13.7c0-5.8-1.4-11.4-1.7-17.2c-0.2-5.1,0.5-10.3,3.5-14.6
	c2.6-3.7,6.7-6.6,11.4-6.3c10,0.6,14.6,12,16.1,20.4c4,22.5-8.6,44.7-30,52.7c-1.5,0.6-2.1-1.8-0.7-2.4c18.8-7.2,30.6-26,28.7-46
	c-0.3-4.8-1.6-9.5-3.7-13.8c-1.9-3.6-4.9-7.2-9.1-8.1c-4.1-0.9-8,1.4-10.4,4.6c-3,4.1-3.6,9.1-3.4,14c0.6,10.6,4.9,23.3-3.3,32.2
	C511.5,360.7,509.7,358.9,510.8,357.8L510.8,357.8z"/>
<path class="st2" d="M508.9,403.4c-8.4-5.5-9.3-16.3-10.4-25.4c-0.6-5.1-1.5-10.6-4.6-14.9c-2.6-3.5-7-6.5-11.5-5.7
	c-4,0.7-6.7,4-8.2,7.6c-1.6,4.2-2.1,8.7-1.8,13.1c0.6,10.1,4.6,19.7,11.2,27.4c3.3,3.9,7.1,7.2,11.4,9.9c4.4,2.6,9.3,4.3,14.4,4.9
	c1.6,0.2,1.6,2.7,0,2.5c-4.8-0.5-9.6-2-13.9-4.2c-4.2-2.3-8-5.2-11.4-8.7c-7.6-7.6-12.5-17.4-14-28c-0.8-4.8-0.6-9.8,0.5-14.5
	c1.1-4.1,3.2-8.3,6.9-10.7c4-2.5,9.1-2.4,13.1,0.2c4.5,2.7,7.3,7.3,8.7,12.2c1.8,6.1,1.6,12.5,2.9,18.6c1.1,5.2,3.2,10.6,7.8,13.6
	C511.5,402.1,510.2,404.3,508.9,403.4L508.9,403.4z"/>
<path class="st0" d="M429.4,259.3c0-23.2,18.8-42,42-42s42,18.8,42,42s-18.8,42-42,42C448.2,301.3,429.4,282.5,429.4,259.3z
	 M431.4,259.3c0,22.1,17.9,40,40,40s40-17.9,40-40s-17.9-40-40-40C449.3,219.4,431.4,237.3,431.4,259.3z"/>
<path class="st3" d="M447.4,247.8l-5-1c0,0,4.2,4.7,5,5l0,0c0.1,1,0.1,2,0,3c9.6,41.2,45,23,45,23c-12.9,0.3-14-5-14-5
	c7.5-1.1,9-6,9-6c-1.4,0.7-3.1,0.3-4-1c8.1-2.1,7-10,7-10c-1.4,1-3.1,1.7-4.9,1.9c0.9-1.1,8.5-10.2,3.9-14.9c0,0-5.6,10-20.3,10.9
	l-1-0.2c0.2-0.7,0.2-1.5,0.2-2.2c0-5.8-4.7-10.5-10.5-10.5l0,0c-7,0-8.5,4-8.5,4l-5-3C444.4,241.8,444.9,246.8,447.4,247.8z"/>
<path class="st0" d="M716.3,538h-62c-3.8,0-7-3.1-7-6.9l-8-62.1c0-3.9,3.1-7,7-7h78c3.9,0,7,3.1,7,7l0,0.1l-8,61.9
	C723.3,534.9,720.2,538,716.3,538z M641.3,468.9l8,62.1c0,2.8,2.2,5,5,5h62c2.8,0,5-2.2,5-5l0-0.1l8-61.9c0-2.7-2.3-4.9-5-4.9h-78
	C643.6,464,641.4,466.2,641.3,468.9L641.3,468.9z"/>
<ellipse class="st1" cx="685.3" cy="474" rx="42" ry="7"/>
<path class="st2" d="M686.5,466.8c-6.1-14.9-9.2-30.9-9.2-47.1c0-16.2,3.1-32.2,9-47.2c3.3-8.4,7.6-16.4,12.8-23.9
	c1.1-1.6-1.5-3.1-2.6-1.5c-9.3,13.6-15.8,28.9-19.2,45c-3.4,16.1-3.8,32.6-1.2,48.8c1.5,9.1,4,18.1,7.5,26.6
	C684.3,469.4,687.2,468.6,686.5,466.8z"/>
<path class="st2" d="M678.2,394.6c-6.1-6.7-2-17.1-1.9-25c0.2-4-0.9-8-3.2-11.3c-2.2-2.9-5.4-5-9.1-4.8c-8.1,0.5-11.9,9.6-13.1,16.5
	c-3.3,18.1,6.9,35.9,24.1,42.3c1.8,0.7,2.6-2.2,0.8-2.9c-14.6-5.6-23.7-20.2-22.3-35.8c0.2-3.8,1.2-7.5,2.9-10.9
	c1.5-2.8,3.8-5.5,7-6.1c3.2-0.6,6.1,1.5,7.8,4.1c2.1,3.3,2.4,7.2,2.1,11c-0.6,8.4-3.6,18,2.8,25
	C677.3,398.2,679.5,396.1,678.2,394.6L678.2,394.6z"/>
<path class="st2" d="M679.6,431.5c6.4-4.2,7.5-12.2,8.3-19.2c0.5-4.1,0.9-8.5,3.3-12.1c1.8-2.8,5.1-5.4,8.6-5
	c7.1,0.7,8.2,10.3,7.9,15.8c-0.5,7.9-3.5,15.4-8.7,21.4c-5.3,6.1-12,10.6-20.1,11.6c-1.9,0.2-1.9,3.2,0,3
	c16.3-2,29.2-16.6,31.5-32.5c1-6.9,0.5-16.3-5.9-20.7c-3.2-2-7.2-2.1-10.4-0.2c-3.6,2.1-6.2,5.4-7.4,9.4c-1.6,4.9-1.5,10.1-2.5,15.1
	c-0.8,4.1-2.4,8.5-6,10.9C676.5,430,678,432.6,679.6,431.5z"/>
<path class="st0" d="M706.3,348.7c-23.2,0-42-18.8-42-42s18.8-42,42-42s42,18.8,42,42C748.3,329.9,729.5,348.6,706.3,348.7z
	 M706.3,266.7c-22.1,0-40,17.9-40,40s17.9,40,40,40s40-17.9,40-40C746.3,284.6,728.4,266.7,706.3,266.7z"/>
<path class="st4" d="M733.8,306.8c0-15.2-12.3-27.5-27.5-27.5s-27.5,12.3-27.5,27.5c0,13.5,9.8,25,23.2,27.1v-19.2h-7v-7.9h7v-6.1
	c0-6.9,4.1-10.7,10.4-10.7c2.1,0,4.1,0.2,6.1,0.5v6.8h-3.5c-3.4,0-4.5,2.1-4.5,4.3v5.2h7.6l-1.2,7.9h-6.4V334
	C723.9,331.8,733.8,320.3,733.8,306.8L733.8,306.8z"/>
<path class="st0" d="M827.8,537c0,0.6-0.4,1-1,1h-806c-0.6,0-1-0.4-1-1s0.4-1,1-1h806C827.4,536,827.8,536.4,827.8,537z"/>
<path class="st0" d="M211.3,538h-62c-3.8,0-7-3.1-7-6.9l-8-62.1c0-3.9,3.1-7,7-7h78c3.9,0,7,3.1,7,7l0,0.1l-8,61.9
	C218.3,534.9,215.2,538,211.3,538z M136.3,468.9l8,62.1c0,2.8,2.2,5,5,5h62c2.8,0,5-2.2,5-5l0-0.1l8-61.9c0-2.7-2.3-4.9-5-4.9h-78
	C138.6,464,136.4,466.2,136.3,468.9L136.3,468.9z"/>
<ellipse class="st1" cx="180.3" cy="474" rx="42" ry="7"/>
<path class="st2" d="M179.1,470.6c6.2-15.3,9.4-31.6,9.3-48.1c0-16.4-3.1-32.7-9.2-48c-3.4-8.6-7.8-16.8-13-24.4
	c-1.1-1.6-3.7-0.1-2.6,1.5c9.1,13.3,15.5,28.3,18.9,44.1c3.4,15.8,3.8,32.1,1.2,48c-1.5,8.9-4,17.7-7.4,26
	C175.5,471.6,178.4,472.4,179.1,470.6L179.1,470.6z"/>
<path class="st2" d="M186.6,399.8c5.4-5.9,4.2-14.2,3.2-21.5c-0.5-4-1-8.3,0.5-12.2c1.1-2.9,3.5-5.8,6.7-6.4c3.2-0.6,6.1,1.5,8,4
	c2,3,3.4,6.4,3.9,10c3,16.5-6.3,32.8-21.9,38.8c-1.8,0.7-1,3.6,0.8,2.9c7.5-2.9,13.9-7.9,18.3-14.5c4.8-7.2,7-15.9,6.2-24.6
	c-0.7-7.2-3.4-16.5-11-19.2c-7.8-2.7-13.9,5.1-14.7,12c-0.7,5.4,0.7,10.6,1.1,16c0.3,4.3-0.1,9.2-3.2,12.6
	C183.2,399.1,185.3,401.2,186.6,399.8L186.6,399.8z"/>
<path class="st2" d="M184.6,431.9c-7.2-4.8-6.2-15.4-7.7-22.8c-0.8-4.1-2.5-8.1-5.8-10.9c-2.9-2.4-6.8-3.9-10.5-2.6
	c-7.4,2.5-9,11.8-8.6,18.6c0.5,8.6,3.9,16.8,9.6,23.3c5.9,6.7,13.3,11.4,22.2,12.5c1.9,0.2,1.9-2.8,0-3
	c-14.9-1.8-26.6-15.7-28.6-30.1c-0.6-3.6-0.5-7.2,0.4-10.8c0.8-2.9,2.3-5.9,5.1-7.3c3.2-1.6,6.8,0,9.1,2.3c2.9,2.9,3.9,6.8,4.5,10.8
	c1.2,8,1.1,17.6,8.7,22.6C184.7,435.6,186.2,433,184.6,431.9L184.6,431.9z"/>
<path class="st0" d="M161.1,350.9c-23.2,0-42-18.8-42-42s18.8-42,42-42s42,18.8,42,42C203.1,332.1,184.3,350.9,161.1,350.9z
	 M161.1,268.9c-22.1,0-40,17.9-40,40s17.9,40,40,40s40-17.9,40-40C201.1,286.8,183.2,268.9,161.1,268.9z"/>
<path class="st3" d="M172.5,288.1c5.8,0,10.5,4.7,10.6,10.6v21.1c0,5.8-4.7,10.5-10.6,10.6h-21.1c-5.8,0-10.5-4.7-10.6-10.6v-21.1
	c0-5.8,4.7-10.5,10.6-10.6L172.5,288.1 M172.5,283.9h-21.1c-8.2,0-14.8,6.6-14.8,14.8v21.1c0,8.2,6.6,14.8,14.8,14.8h21.1
	c8.2,0,14.8-6.6,14.8-14.8v-21.1C187.3,290.5,180.7,283.9,172.5,283.9L172.5,283.9z"/>
<path class="st3" d="M175.7,298.7c-1.7,0-3.2-1.4-3.2-3.2c0-1.7,1.4-3.2,3.2-3.2s3.2,1.4,3.2,3.2
	C178.9,297.3,177.5,298.7,175.7,298.7C175.7,298.7,175.7,298.7,175.7,298.7z"/>
<path class="st3" d="M162,300.8c4.7,0,8.4,3.8,8.4,8.4c0,4.7-3.8,8.4-8.4,8.4c-4.7,0-8.4-3.8-8.4-8.4
	C153.5,304.6,157.3,300.8,162,300.8C162,300.8,162,300.8,162,300.8 M162,296.6c-7,0-12.7,5.7-12.7,12.7c0,7,5.7,12.7,12.7,12.7
	c7,0,12.7-5.7,12.7-12.7l0,0C174.7,302.3,169,296.6,162,296.6C162,296.6,162,296.6,162,296.6L162,296.6z"/>
<polygon class="st5" points="401.1,525 412.8,521.4 404.5,474.5 387.2,479.8 "/>
<path class="st6" d="M438.8,525.4l-36.8,11.3l0,0l-4.4-14.2l0,0l22.6-6.9C428,513.1,436.3,517.5,438.8,525.4L438.8,525.4
	L438.8,525.4z"/>
<polygon class="st5" points="301.1,525.3 313.4,525.3 319.2,478 301.1,478 "/>
<path class="st6" d="M337,536.7l-38.5,0l0,0l0-14.9l0,0l23.6,0C330.3,521.8,337,528.5,337,536.7L337,536.7L337,536.7z"/>
<path class="st5" d="M300.2,388.2c-3.8-3.3-4.2-9.1-0.8-12.9c0.4-0.4,0.7-0.8,1.2-1.1l9.5-119.7l19.3,4.8l-15.5,116.8
	c2.9,4.2,1.9,9.9-2.3,12.8C308.1,391.3,303.4,391.1,300.2,388.2L300.2,388.2z"/>
<circle class="st5" cx="338.9" cy="183.5" r="24.6"/>
<path class="st2" d="M317.6,250.8c-5.5-7.6-5.7-18.1,0.3-25.4c3.9-4.7,10.4-8.5,21.3-8.5c29,0,40,23,40,23s12,22,5,42s-7,22-7,22
	l-46-4C331.1,299.9,338.9,280.1,317.6,250.8z"/>
<path class="st2" d="M303.4,270.7l9.9-32.4c2.5-8.2,11.2-12.8,19.4-10.3c0.9,0.3,1.7,0.6,2.6,1l0,0c7.3,3.8,10.4,12.5,7.1,20
	l-12.6,28.7L303.4,270.7z"/>
<path class="st6" d="M376.1,298.9l39,202l-21,6l-51-133l-23,136l-22,3c0,0-9.7-179.9,33-213L376.1,298.9z"/>
<path class="st5" d="M381.2,313.5c-6.7,0-12.7-4.2-14.9-10.5L355,271.7l17.5-8.3l9.6,29.3l48.9-2.4c0.3-0.4,0.6-0.8,0.9-1.2l0,0
	c3.9-4.6,10.9-5.2,15.5-1.2c0.1,0.1,0.2,0.1,0.2,0.2c4.3,3.9,4.8,10.5,1.2,15.1c-3.8,4.7-10.7,5.5-15.5,1.7
	c-0.1-0.1-0.2-0.1-0.2-0.2c-0.3-0.2-0.5-0.5-0.8-0.7l-48,9.4C383.3,313.4,382.3,313.5,381.2,313.5z"/>
<path class="st2" d="M348.7,242.8c-1-8.5,5.1-16.2,13.6-17.2c0.9-0.1,1.9-0.1,2.8-0.1l0,0c8.2,0.5,14.5,7.3,14.5,15.5v31.3
	l-26.9,4.1L348.7,242.8z"/>
<path class="st6" d="M344.3,208.3c-3.7,0-6.5-3.9-6.4-7.6s2.6-6.9,5.6-9.1s6.5-3.5,9.8-5.1s6.6-3.6,8.7-6.6c2.5-4.1,2.9-9.1,1-13.5
	c-1.9-4.3-5.2-7.9-9.3-10.2c-12.8-7.5-29.1-3.9-37.6,8.3l-4.2,11.5c-4.3,5.2-5,12.8-2.3,19s8.2,10.8,14.6,13
	c6.4,2.1,13.3,2.3,19.8,0.6"/>
<path class="st6" d="M321.9,170.1c-1.8-2.9-4.9-4.7-8.2-5.8c-13.5-4.5-28,2.8-32.5,16.3c-0.7,2.2-1.2,4.5-1.3,6.7
	c-0.3,6.3,1.6,12.5,2.8,18.7s1.4,13.1-2,18.4c-2.6,4-7,6.6-11.3,8.8c-3.6,1.8-7.5,3.5-11.5,3.2c-4-0.4-8-3.5-7.9-7.5
	c-1.3,2.9-2.2,5.9-2.7,9.1c-0.3,3.2,0.5,6.6,2.8,8.8c3.3,3.2,8.6,3,13.1,2.3c9.9-1.5,19.8-4.3,27.6-10.5s13-16.5,10.9-26.2
	c-0.9-4.1-2.9-7.8-4.5-11.6s-2.9-8-2.1-12.1c0.9-4.3,3.6-7.9,7.5-10c3.8-2,8.3-2.7,12.5-1.9c2.8,0.5,6.3,1.2,8-1.1
	c0.9-1.5,0.9-3.4-0.1-4.8c-1-1.4-2.2-2.6-3.6-3.6"/>
<circle class="st1" cx="561.2" cy="124.5" r="6.5"/>
<circle class="st1" cx="561.2" cy="150.3" r="6.5"/>
<circle class="st1" cx="561.2" cy="176" r="6.5"/>
<circle class="st1" cx="561.2" cy="201.8" r="6.5"/>
<circle class="st1" cx="588.2" cy="124.5" r="6.5"/>
<circle class="st1" cx="588.2" cy="150.3" r="6.5"/>
<circle class="st1" cx="588.2" cy="176" r="6.5"/>
<circle class="st1" cx="588.2" cy="201.8" r="6.5"/>
<circle class="st1" cx="615.2" cy="124.5" r="6.5"/>
<circle class="st1" cx="615.2" cy="150.3" r="6.5"/>
<circle class="st1" cx="615.2" cy="176" r="6.5"/>
<circle class="st1" cx="615.2" cy="201.8" r="6.5"/>
<circle class="st1" cx="642.2" cy="124.5" r="6.5"/>
<circle class="st1" cx="642.2" cy="150.3" r="6.5"/>
<circle class="st1" cx="642.2" cy="176" r="6.5"/>
<circle class="st1" cx="642.2" cy="201.8" r="6.5"/>
<circle class="st1" cx="669.2" cy="124.5" r="6.5"/>
<circle class="st1" cx="669.2" cy="150.3" r="6.5"/>
<circle class="st1" cx="669.2" cy="176" r="6.5"/>
<circle class="st1" cx="669.2" cy="201.8" r="6.5"/>
<circle class="st1" cx="696.2" cy="124.5" r="6.5"/>
<circle class="st1" cx="696.2" cy="150.3" r="6.5"/>
<circle class="st1" cx="696.2" cy="176" r="6.5"/>
<circle class="st1" cx="696.2" cy="201.8" r="6.5"/>
</svg>
