<?xml version="1.0" encoding="utf-8"?>
<!-- Generator: Adobe Illustrator 24.2.0, SVG Export Plug-In . SVG Version: 6.00 Build 0)  -->
<svg version="1.1" id="aee208a0-d3af-4f9e-8f7e-ec9443f0f7b7"
	 xmlns="http://www.w3.org/2000/svg" xmlns:xlink="http://www.w3.org/1999/xlink" x="0px" y="0px" viewBox="0 0 847.7 656"
	 style="enable-background:new 0 0 847.7 656;" xml:space="preserve">
<style type="text/css">
	.st0{fill:#9CD499;}
	.st1{fill:#FFFFFF;}
	.st2{fill:#3F3D56;}
	.st3{fill:#6C63FF;}
	.st4{fill:#2F2E41;}
	.st5{fill:#FFB8B8;}
</style>
<path class="st0" d="M458.7,154.3c-0.2,23.8-2,47.6-5.2,71.3c-0.1,0.8-0.2,1.7-0.4,2.5l-223.3-1.2c-0.7-0.8-1.3-1.7-1.9-2.5
	c-2.1-2.8-4-5.7-5.8-8.6c-8.6-14.3-12.6-31.1-8.6-42.6l0.1-0.2c0.9-2.5,2.2-4.9,4-6.9c9-10.1,27.2-8.5,43.8-0.3
	c-14.8-16.2-26.7-36.7-27.6-55c-0.9-17.8,8.5-30.6,18.6-41.4c0.3-0.4,0.7-0.7,1-1.1c0.2-0.2,0.3-0.3,0.5-0.5
	c7.9-8.3,17.1-16.4,30.4-15.4c14.6,1.1,30.8,13.3,42.2,27.6c11.4,14.3,18.9,30.4,26.6,46.2c7.7,15.8,16,32,28.2,45.5
	c-16.7-21.1-30.1-45-35-68.3s-0.6-45.7,14.2-56.7c4.5-3.2,9.7-5.3,15.2-6.1c0.6-0.1,1.3-0.2,2-0.3c13.7-1.6,30.1,3.2,44.1,14.5
	c15.4,12.5,26,31,31.3,48.6C458.4,121,458.9,138,458.7,154.3z"/>
<path class="st1" d="M312.7,227.3l-4.3,0c-1.4-0.8-2.7-1.7-4.1-2.5c-0.8-0.5-1.7-1-2.6-1.6c-14.2-8.6-28.4-16.9-42.8-24.9
	c-14.3-8-28.7-15.5-43.2-22.8c-0.8-0.3-1.2-1.2-1-2c0-0.1,0-0.1,0.1-0.1c0.2-0.4,0.7-0.5,1.3-0.2c1.8,0.9,3.6,1.8,5.3,2.7
	c14.5,7.3,29,15,43.3,23.1c14.4,8.1,28.7,16.5,42.9,25.3c0.3,0.2,0.6,0.4,0.9,0.6C310,225.6,311.3,226.5,312.7,227.3z"/>
<path class="st1" d="M367.7,227.6l-2.6,0c-0.6-0.8-1.2-1.7-1.8-2.5c-14-19.6-28-39.2-42-58.9c-22.9-32.1-45.8-64.2-68.7-96.4
	c-0.1-0.2-0.2-0.4-0.3-0.6c-0.2-0.7,0.3-1.1,1-1.1c0.6,0.1,1.1,0.4,1.4,0.9c12.8,18,25.7,36,38.5,54c22.8,32,45.6,63.9,68.3,95.9
	c1.4,2,2.9,4.1,4.3,6.1C366.5,225.9,367.1,226.8,367.7,227.6z"/>
<path class="st1" d="M426.5,212.3c-0.1,4.4-0.4,8.8-0.8,13.2c-0.1,0.8-0.1,1.7-0.2,2.5l-2.8,0c0.1-0.8,0.2-1.7,0.2-2.5
	c0.6-6.3,1-12.6,1.1-19.1c0.1-18-1.7-36.1-5.2-53.8c-3.8-19.1-9.2-37.7-16.3-55.8c-7.4-19.1-16.3-37.6-26.6-55.2
	c-0.2-0.3-0.3-0.6-0.2-1c0.1-0.8,1.2-1,2-0.3c0.2,0.1,0.3,0.3,0.4,0.5c1.3,2.2,2.5,4.4,3.8,6.6c9.9,17.8,18.5,36.3,25.5,55.4
	c6.7,18.2,11.7,36.9,15.2,55.9C425.6,176.4,427,194.3,426.5,212.3z"/>
<path class="st2" d="M615.4,226.2H8.4c-4.8,0-8.7,3.9-8.7,8.7v411.3c0,4.8,3.9,8.7,8.7,8.7h607c2.6,0,5-1.1,6.6-3.1
	c0.1-0.1,0.1-0.2,0.2-0.2c0.5-0.6,0.9-1.3,1.3-2.1c0.4-1,0.7-2.2,0.7-3.3V235C624.1,230.1,620.2,226.2,615.4,226.2z M621.7,646.3
	c0,1.2-0.4,2.4-1,3.4c-0.6,0.9-1.4,1.6-2.4,2.1c-0.9,0.5-1.9,0.7-2.9,0.7H8.4c-3.4,0-6.2-2.8-6.2-6.2V235c0-3.4,2.8-6.2,6.2-6.2h607
	c3.4,0,6.2,2.8,6.2,6.2V646.3z"/>
<rect x="0.9" y="251.2" class="st2" width="622" height="2.5"/>
<circle class="st2" cx="22.1" cy="244.9" r="7.5"/>
<circle class="st2" cx="43.6" cy="244.9" r="7.5"/>
<circle class="st2" cx="65.1" cy="244.9" r="7.5"/>
<path class="st2" d="M468,318.9H156c-7.2,0-13-5.8-13-13s5.8-13,13-13h312c7.2,0,13,5.8,13,13S475.2,318.9,468,318.9z M156,294.9
	c-6.1,0-11,4.9-11,11s4.9,11,11,11h312c6.1,0,11-4.9,11-11s-4.9-11-11-11H156z"/>
<path class="st3" d="M181.9,471.5h-120c-9.4,0-17-7.6-17-17v-56c0-9.4,7.6-17,17-17h120c9.4,0,17,7.6,17,17v56
	C198.9,463.9,191.3,471.5,181.9,471.5z"/>
<path class="st3" d="M371.9,471.5h-120c-9.4,0-17-7.6-17-17v-56c0-9.4,7.6-17,17-17h120c9.4,0,17,7.6,17,17v56
	C388.9,463.9,381.3,471.5,371.9,471.5z"/>
<path class="st3" d="M561.9,471.5h-120c-9.4,0-17-7.6-17-17v-56c0-9.4,7.6-17,17-17h120c9.4,0,17,7.6,17,17v56
	C578.9,463.9,571.3,471.5,561.9,471.5z"/>
<path class="st3" d="M181.9,589.5h-120c-9.4,0-17-7.6-17-17v-56c0-9.4,7.6-17,17-17h120c9.4,0,17,7.6,17,17v56
	C198.9,581.9,191.3,589.5,181.9,589.5z"/>
<path class="st3" d="M371.9,589.5h-120c-9.4,0-17-7.6-17-17v-56c0-9.4,7.6-17,17-17h120c9.4,0,17,7.6,17,17v56
	C388.9,581.9,381.3,589.5,371.9,589.5z"/>
<path class="st3" d="M561.9,589.5h-120c-9.4,0-17-7.6-17-17v-56c0-9.4,7.6-17,17-17h120c9.4,0,17,7.6,17,17v56
	C578.9,581.9,571.3,589.5,561.9,589.5z"/>
<circle class="st4" cx="696.8" cy="288.5" r="33"/>
<path class="st5" d="M614.1,460.2c-2.8-5.3-0.7-11.7,4.5-14.5c0.6-0.3,1.1-0.5,1.7-0.7l41.8-88.5l19.1,13.4l-47.1,82.7
	c1.4,5.8-2.1,11.6-7.9,13.1C621.5,466.9,616.4,464.6,614.1,460.2L614.1,460.2z"/>
<path class="st3" d="M650,368.2c-0.4-1.3-0.2-2.8,0.6-4l13-20.4c3-6.7,10.9-9.8,17.7-6.8c6.7,3,9.7,10.9,6.8,17.6l-6.5,23.4
	c-0.7,2.6-3.4,4.1-5.9,3.3c-0.2-0.1-0.4-0.1-0.7-0.2l-22.2-9.9C651.3,370.7,650.4,369.6,650,368.2z"/>
<path class="st5" d="M755.2,468.9c-5.8-1.3-9.4-7.1-8-12.9c0.1-0.6,0.3-1.2,0.6-1.8l-39.6-89.5l22.7-5.7l31.8,89.7
	c5.3,2.7,7.4,9.2,4.7,14.5C765.1,467.8,760,470.1,755.2,468.9L755.2,468.9z"/>
<polygon class="st5" points="766,631.1 754.5,635.3 732.8,592.9 749.8,586.7 "/>
<path class="st4" d="M745,635l22.2-8.1l0,0l5.1,14l0,0l-36.2,13.2l0,0l0,0C733.3,646.4,737.3,637.8,745,635L745,635z"/>
<path class="st4" d="M734.5,604.3l-43.9-76.8c-0.9-1.5-0.8-3.4,0.1-4.9l19.8-32.9c1.4-2.3,4.3-3,6.6-1.7c1,0.6,1.7,1.5,2.1,2.5
	L756.5,594c0.9,2.3-0.2,4.9-2.5,6l-13.2,6.3c-0.6,0.3-1.3,0.5-2,0.5C737,606.7,735.4,605.8,734.5,604.3z"/>
<circle class="st5" cx="693.8" cy="300" r="24.6"/>
<path class="st3" d="M658.9,411.3c-19.3-42.9,0.2-66.9,9.4-75.2c2.7-2.4,6.1-3.7,9.7-3.7h34.6c8.1,0,14.6,6.5,14.6,14.6
	c0,2.3-0.5,4.5-1.5,6.5l-23.1,46.3l-43.5,12L658.9,411.3z"/>
<path class="st3" d="M709.5,380.8c-1.3-0.6-2.2-1.7-2.6-3l-6.9-23.2c-3.1-6.7-0.2-14.7,6.5-17.8c6.7-3.1,14.6-0.3,17.7,6.4
	l13.4,20.2c1.5,2.2,0.9,5.2-1.4,6.7c-0.2,0.1-0.4,0.2-0.6,0.3l-22,10.3C712.2,381.4,710.8,381.4,709.5,380.8z"/>
<polygon class="st5" points="686.9,642.7 674.6,642.7 668.8,595.4 686.9,595.4 "/>
<path class="st4" d="M665.8,639.2h23.6l0,0v14.9l0,0h-38.5l0,0l0,0C650.9,645.9,657.6,639.2,665.8,639.2L665.8,639.2z"/>
<path class="st4" d="M681.7,624.7l-19.6-2.3c-2.6-0.3-4.5-2.7-4.2-5.3c0,0,0-0.1,0-0.1l17.5-131.9c0.1-0.5,0-0.9-0.1-1.4l-17.6-72.6
	c-0.3-1.4-0.1-2.8,0.8-3.9c2.7-3.8,12.1-12.5,39.9-12.7h0c1.9,0,3.6,1.1,4.4,2.8l3.7,8.2c0.3,0.6,0.7,1.1,1.3,1.5
	c5.1,3.6,29.9,23.9,15.3,68.5c-14.3,43.8-32.6,128.9-36.1,145.5c-0.5,2.2-2.4,3.8-4.7,3.8C682,624.7,681.8,624.7,681.7,624.7z"/>
<path class="st4" d="M719.6,284.6c-5.6,3.9-12.3,5.9-19.1,5.9c2.4,1.7,5.2,2.8,8.1,3.3c-9.1,1.9-18.4,2-27.5,0.2c-2-0.3-4-1-5.8-2
	c-1.8-1-3.1-2.7-3.6-4.8c-0.6-3.4,2.1-6.6,4.9-8.7c8.7-6.4,19.8-8.7,30.2-6c3.4,0.9,6.8,2.3,9,5.1s2.8,6.9,0.8,9.7L719.6,284.6z"/>
<path class="st4" d="M703.2,267.5c-2.8-0.9-5.7-1.9-7.9-3.9s-3.6-5.1-2.6-7.9c1-2.7,3.9-4.2,6.7-4.5s5.6,0.7,8.4,1.5
	c-1.2-1.9-2.5-5.4-3.6-9.2c-2.5-8.7,8-16.6,17-15.9c0.3,0,0.5,0,0.8,0.1c9.1,1.3,13.8,4.8,20.1,11.4c7.9,8.3,12.1,19.5,14.8,30.6
	s4.4,22.6,8.3,33.3s10.5,21.1,20.5,26.6c11.2,5.9,24.8,5.1,35.3-2.2c2.4,16.6-9.1,32.1-25.7,34.5c-3.1,0.5-6.2,0.4-9.3-0.1
	c-13-2.1-23.4-12.6-29-24.5s-7.1-25.3-8.5-38.4s-2.8-26.4-8.2-38.4c-2.2-4.9-5.4-9.8-11.1-10.6c-3.1-0.5-6.1,1.1-7.4,4
	c-2.5,6.1,6.1,11.3,3.9,17.1c-1,2.3-3.2,3.8-5.7,3.9c-4.2,0.3-7.6-2.1-10.8-4.4C702.7,265.9,703.2,267.5,703.2,267.5z"/>
<path class="st2" d="M847,655H617c-0.6,0-1-0.4-1-1s0.4-1,1-1h230c0.6,0,1,0.4,1,1S847.5,655,847,655z"/>
</svg>
